<?xml version="1.0" encoding="UTF-8"?>
<svg xmlns="http://www.w3.org/2000/svg" xmlns:xlink="http://www.w3.org/1999/xlink" width="360pt" height="360pt" viewBox="0 0 360 360">
<defs>
<g>
<g id="glyph-0-0">
<path d="M 3.296875 -8.671875 C 2.515625 -8.671875 1.78125 -8.3125 1.34375 -7.734375 C 0.796875 -6.953125 0.515625 -5.8125 0.515625 -4.203125 C 0.515625 -1.265625 1.46875 0.28125 3.296875 0.28125 C 5.09375 0.28125 6.078125 -1.265625 6.078125 -4.125 C 6.078125 -5.8125 5.8125 -6.9375 5.25 -7.734375 C 4.8125 -8.328125 4.109375 -8.671875 3.296875 -8.671875 Z M 3.296875 -7.734375 C 4.4375 -7.734375 5 -6.578125 5 -4.21875 C 5 -1.75 4.453125 -0.59375 3.28125 -0.59375 C 2.15625 -0.59375 1.59375 -1.796875 1.59375 -4.1875 C 1.59375 -6.578125 2.15625 -7.734375 3.296875 -7.734375 Z M 3.296875 -7.734375 "/>
</g>
<g id="glyph-0-1">
<path d="M 3.921875 -2.09375 L 3.921875 0 L 4.984375 0 L 4.984375 -2.09375 L 6.234375 -2.09375 L 6.234375 -3.046875 L 4.984375 -3.046875 L 4.984375 -8.671875 L 4.203125 -8.671875 L 0.34375 -3.21875 L 0.34375 -2.09375 Z M 3.921875 -3.046875 L 1.265625 -3.046875 L 3.921875 -6.875 Z M 3.921875 -3.046875 "/>
</g>
<g id="glyph-0-2">
<path d="M 4.6875 -4.578125 C 5.578125 -5.109375 5.859375 -5.546875 5.859375 -6.359375 C 5.859375 -7.734375 4.8125 -8.671875 3.296875 -8.671875 C 1.796875 -8.671875 0.75 -7.734375 0.75 -6.375 C 0.75 -5.546875 1.015625 -5.125 1.890625 -4.578125 C 0.921875 -4.078125 0.4375 -3.375 0.4375 -2.40625 C 0.4375 -0.828125 1.609375 0.28125 3.296875 0.28125 C 4.984375 0.28125 6.15625 -0.828125 6.15625 -2.40625 C 6.15625 -3.375 5.671875 -4.078125 4.6875 -4.578125 Z M 3.296875 -7.734375 C 4.203125 -7.734375 4.78125 -7.203125 4.78125 -6.34375 C 4.78125 -5.515625 4.1875 -4.984375 3.296875 -4.984375 C 2.40625 -4.984375 1.828125 -5.515625 1.828125 -6.359375 C 1.828125 -7.203125 2.40625 -7.734375 3.296875 -7.734375 Z M 3.296875 -4.09375 C 4.359375 -4.09375 5.078125 -3.390625 5.078125 -2.390625 C 5.078125 -1.34375 4.375 -0.65625 3.28125 -0.65625 C 2.25 -0.65625 1.53125 -1.375 1.53125 -2.375 C 1.53125 -3.40625 2.234375 -4.09375 3.296875 -4.09375 Z M 3.296875 -4.09375 "/>
</g>
<g id="glyph-0-3">
<path d="M 3.109375 -6.1875 L 3.109375 0 L 4.15625 0 L 4.15625 -8.671875 L 3.46875 -8.671875 C 3.09375 -7.34375 2.859375 -7.15625 1.21875 -6.953125 L 1.21875 -6.1875 Z M 3.109375 -6.1875 "/>
</g>
<g id="glyph-0-4">
<path d="M 2.65625 -4 L 3.234375 -4 C 4.375 -4 4.984375 -3.453125 4.984375 -2.40625 C 4.984375 -1.3125 4.328125 -0.65625 3.234375 -0.65625 C 2.078125 -0.65625 1.515625 -1.25 1.4375 -2.515625 L 0.390625 -2.515625 C 0.4375 -1.828125 0.546875 -1.375 0.75 -0.984375 C 1.203125 -0.140625 2.03125 0.28125 3.1875 0.28125 C 4.9375 0.28125 6.078125 -0.78125 6.078125 -2.421875 C 6.078125 -3.53125 5.65625 -4.125 4.625 -4.484375 C 5.421875 -4.8125 5.8125 -5.40625 5.8125 -6.28125 C 5.8125 -7.78125 4.84375 -8.671875 3.234375 -8.671875 C 1.515625 -8.671875 0.59375 -7.71875 0.5625 -5.875 L 1.625 -5.875 C 1.625 -6.40625 1.6875 -6.703125 1.8125 -6.96875 C 2.046875 -7.46875 2.578125 -7.75 3.234375 -7.75 C 4.171875 -7.75 4.734375 -7.1875 4.734375 -6.25 C 4.734375 -5.640625 4.53125 -5.265625 4.0625 -5.0625 C 3.765625 -4.9375 3.390625 -4.890625 2.65625 -4.890625 Z M 2.65625 -4 "/>
</g>
<g id="glyph-0-5">
<path d="M 6.078125 -1.046875 L 1.59375 -1.046875 C 1.703125 -1.765625 2.09375 -2.21875 3.125 -2.859375 L 4.328125 -3.53125 C 5.515625 -4.1875 6.125 -5.078125 6.125 -6.140625 C 6.125 -6.859375 5.84375 -7.53125 5.34375 -8 C 4.84375 -8.453125 4.21875 -8.671875 3.40625 -8.671875 C 2.328125 -8.671875 1.53125 -8.296875 1.0625 -7.546875 C 0.75 -7.09375 0.625 -6.546875 0.59375 -5.671875 L 1.65625 -5.671875 C 1.6875 -6.265625 1.765625 -6.609375 1.90625 -6.90625 C 2.1875 -7.421875 2.734375 -7.75 3.375 -7.75 C 4.328125 -7.75 5.046875 -7.0625 5.046875 -6.125 C 5.046875 -5.421875 4.65625 -4.828125 3.90625 -4.390625 L 2.796875 -3.75 C 1.015625 -2.71875 0.5 -1.90625 0.40625 -0.015625 L 6.078125 -0.015625 Z M 6.078125 -1.046875 "/>
</g>
<g id="glyph-0-6">
<path d="M 0.84375 -6.28125 L 0.84375 0 L 1.84375 0 L 1.84375 -3.46875 C 1.84375 -4.75 2.515625 -5.59375 3.546875 -5.59375 C 4.34375 -5.59375 4.84375 -5.109375 4.84375 -4.359375 L 4.84375 0 L 5.84375 0 L 5.84375 -4.75 C 5.84375 -5.796875 5.0625 -6.46875 3.859375 -6.46875 C 2.921875 -6.46875 2.3125 -6.109375 1.765625 -5.234375 L 1.765625 -6.28125 Z M 0.84375 -6.28125 "/>
</g>
<g id="glyph-0-7">
<path d="M 5.78125 0 L 5.78125 -6.28125 L 4.78125 -6.28125 L 4.78125 -2.71875 C 4.78125 -1.4375 4.109375 -0.59375 3.078125 -0.59375 C 2.28125 -0.59375 1.78125 -1.078125 1.78125 -1.84375 L 1.78125 -6.28125 L 0.78125 -6.28125 L 0.78125 -1.4375 C 0.78125 -0.390625 1.5625 0.28125 2.78125 0.28125 C 3.703125 0.28125 4.296875 -0.046875 4.890625 -0.875 L 4.890625 0 Z M 5.78125 0 "/>
</g>
<g id="glyph-0-8">
<path d="M 0.84375 -6.28125 L 0.84375 0 L 1.84375 0 L 1.84375 -3.953125 C 1.84375 -4.859375 2.515625 -5.59375 3.328125 -5.59375 C 4.0625 -5.59375 4.484375 -5.140625 4.484375 -4.328125 L 4.484375 0 L 5.5 0 L 5.5 -3.953125 C 5.5 -4.859375 6.15625 -5.59375 6.96875 -5.59375 C 7.703125 -5.59375 8.140625 -5.125 8.140625 -4.328125 L 8.140625 0 L 9.140625 0 L 9.140625 -4.71875 C 9.140625 -5.84375 8.5 -6.46875 7.3125 -6.46875 C 6.484375 -6.46875 5.96875 -6.21875 5.390625 -5.515625 C 5.015625 -6.1875 4.515625 -6.46875 3.703125 -6.46875 C 2.859375 -6.46875 2.296875 -6.15625 1.765625 -5.40625 L 1.765625 -6.28125 Z M 0.84375 -6.28125 "/>
</g>
<g id="glyph-0-9">
<path d="M 6.15625 -2.8125 C 6.15625 -3.765625 6.078125 -4.34375 5.90625 -4.8125 C 5.5 -5.84375 4.53125 -6.46875 3.359375 -6.46875 C 1.609375 -6.46875 0.484375 -5.140625 0.484375 -3.0625 C 0.484375 -0.984375 1.5625 0.28125 3.34375 0.28125 C 4.78125 0.28125 5.765625 -0.546875 6.03125 -1.90625 L 5.015625 -1.90625 C 4.734375 -1.078125 4.171875 -0.640625 3.375 -0.640625 C 2.734375 -0.640625 2.203125 -0.9375 1.859375 -1.46875 C 1.625 -1.828125 1.53125 -2.1875 1.53125 -2.8125 Z M 1.546875 -3.625 C 1.625 -4.78125 2.34375 -5.546875 3.34375 -5.546875 C 4.375 -5.546875 5.078125 -4.75 5.078125 -3.625 Z M 1.546875 -3.625 "/>
</g>
<g id="glyph-0-10">
<path d="M 0.828125 -6.28125 L 0.828125 0 L 1.84375 0 L 1.84375 -3.265625 C 1.84375 -4.78125 2.46875 -5.453125 3.859375 -5.40625 L 3.859375 -6.4375 C 3.6875 -6.453125 3.59375 -6.46875 3.46875 -6.46875 C 2.8125 -6.46875 2.328125 -6.078125 1.75 -5.140625 L 1.75 -6.28125 Z M 0.828125 -6.28125 "/>
</g>
<g id="glyph-0-11">
<path d="M 3.265625 -6.46875 C 1.484375 -6.46875 0.4375 -5.203125 0.4375 -3.09375 C 0.4375 -0.96875 1.484375 0.28125 3.28125 0.28125 C 5.046875 0.28125 6.125 -0.984375 6.125 -3.046875 C 6.125 -5.234375 5.09375 -6.46875 3.265625 -6.46875 Z M 3.28125 -5.546875 C 4.40625 -5.546875 5.078125 -4.625 5.078125 -3.0625 C 5.078125 -1.578125 4.375 -0.640625 3.28125 -0.640625 C 2.15625 -0.640625 1.46875 -1.578125 1.46875 -3.09375 C 1.46875 -4.625 2.15625 -5.546875 3.28125 -5.546875 Z M 3.28125 -5.546875 "/>
</g>
<g id="glyph-0-12">
</g>
<g id="glyph-0-13">
<path d="M 5.25 -4.53125 C 5.25 -5.765625 4.421875 -6.46875 2.96875 -6.46875 C 1.515625 -6.46875 0.5625 -5.71875 0.5625 -4.546875 C 0.5625 -3.5625 1.0625 -3.09375 2.5625 -2.734375 L 3.484375 -2.515625 C 4.1875 -2.34375 4.46875 -2.09375 4.46875 -1.640625 C 4.46875 -1.046875 3.875 -0.640625 3 -0.640625 C 2.453125 -0.640625 2 -0.796875 1.75 -1.0625 C 1.59375 -1.25 1.53125 -1.421875 1.46875 -1.875 L 0.40625 -1.875 C 0.453125 -0.421875 1.265625 0.28125 2.921875 0.28125 C 4.5 0.28125 5.515625 -0.5 5.515625 -1.71875 C 5.515625 -2.65625 4.984375 -3.171875 3.734375 -3.46875 L 2.765625 -3.703125 C 1.953125 -3.890625 1.609375 -4.15625 1.609375 -4.59375 C 1.609375 -5.1875 2.125 -5.546875 2.9375 -5.546875 C 3.75 -5.546875 4.171875 -5.203125 4.203125 -4.53125 Z M 5.25 -4.53125 "/>
</g>
<g id="glyph-0-14">
<path d="M 3.046875 -6.28125 L 2.015625 -6.28125 L 2.015625 -8.015625 L 1.015625 -8.015625 L 1.015625 -6.28125 L 0.171875 -6.28125 L 0.171875 -5.46875 L 1.015625 -5.46875 L 1.015625 -0.71875 C 1.015625 -0.078125 1.453125 0.28125 2.234375 0.28125 C 2.5 0.28125 2.71875 0.25 3.046875 0.1875 L 3.046875 -0.640625 C 2.90625 -0.609375 2.765625 -0.59375 2.5625 -0.59375 C 2.140625 -0.59375 2.015625 -0.71875 2.015625 -1.15625 L 2.015625 -5.46875 L 3.046875 -5.46875 Z M 3.046875 -6.28125 "/>
</g>
<g id="glyph-0-15">
<path d="M 6.421875 -0.59375 C 6.3125 -0.5625 6.265625 -0.5625 6.203125 -0.5625 C 5.859375 -0.5625 5.65625 -0.75 5.65625 -1.0625 L 5.65625 -4.75 C 5.65625 -5.875 4.84375 -6.46875 3.296875 -6.46875 C 2.375 -6.46875 1.640625 -6.203125 1.21875 -5.734375 C 0.921875 -5.40625 0.796875 -5.046875 0.78125 -4.421875 L 1.78125 -4.421875 C 1.875 -5.203125 2.328125 -5.546875 3.265625 -5.546875 C 4.171875 -5.546875 4.671875 -5.203125 4.671875 -4.609375 L 4.671875 -4.34375 C 4.65625 -3.90625 4.4375 -3.75 3.625 -3.640625 C 2.203125 -3.46875 1.984375 -3.421875 1.609375 -3.265625 C 0.875 -2.953125 0.5 -2.40625 0.5 -1.578125 C 0.5 -0.4375 1.296875 0.28125 2.5625 0.28125 C 3.359375 0.28125 4 0 4.703125 -0.640625 C 4.78125 0 5.09375 0.28125 5.734375 0.28125 C 5.953125 0.28125 6.078125 0.25 6.421875 0.171875 Z M 4.671875 -1.984375 C 4.671875 -1.640625 4.578125 -1.4375 4.265625 -1.15625 C 3.859375 -0.796875 3.375 -0.59375 2.78125 -0.59375 C 2 -0.59375 1.546875 -0.96875 1.546875 -1.609375 C 1.546875 -2.265625 1.984375 -2.609375 3.0625 -2.765625 C 4.125 -2.90625 4.328125 -2.953125 4.671875 -3.109375 Z M 4.671875 -1.984375 "/>
</g>
<g id="glyph-0-16">
<path d="M 5.3125 -6.28125 L 0.625 -6.28125 L 0.625 -5.40625 L 4.125 -5.40625 L 0.375 -0.90625 L 0.375 0 L 5.484375 0 L 5.484375 -0.875 L 1.578125 -0.875 L 5.3125 -5.40625 Z M 5.3125 -6.28125 "/>
</g>
<g id="glyph-0-17">
<path d="M 1.796875 -6.28125 L 0.796875 -6.28125 L 0.796875 0 L 1.796875 0 Z M 1.796875 -8.75 L 0.796875 -8.75 L 0.796875 -7.484375 L 1.796875 -7.484375 Z M 1.796875 -8.75 "/>
</g>
<g id="glyph-0-18">
<path d="M 0.640625 -8.75 L 0.640625 0 L 1.546875 0 L 1.546875 -0.796875 C 2.03125 -0.078125 2.65625 0.28125 3.546875 0.28125 C 5.203125 0.28125 6.28125 -1.078125 6.28125 -3.171875 C 6.28125 -5.203125 5.25 -6.46875 3.59375 -6.46875 C 2.71875 -6.46875 2.109375 -6.140625 1.640625 -5.4375 L 1.640625 -8.75 Z M 3.390625 -5.53125 C 4.515625 -5.53125 5.234375 -4.5625 5.234375 -3.0625 C 5.234375 -1.625 4.484375 -0.65625 3.390625 -0.65625 C 2.328125 -0.65625 1.640625 -1.625 1.640625 -3.09375 C 1.640625 -4.578125 2.328125 -5.53125 3.390625 -5.53125 Z M 3.390625 -5.53125 "/>
</g>
<g id="glyph-0-19">
<path d="M 6.9375 1.515625 L -0.265625 1.515625 L -0.265625 2.109375 L 6.9375 2.109375 Z M 6.9375 1.515625 "/>
</g>
<g id="glyph-0-20">
<path d="M 6.40625 -4.234375 L 0.59375 -4.234375 L 0.59375 -3.390625 L 6.40625 -3.390625 Z M 6.40625 -2.171875 L 0.59375 -2.171875 L 0.59375 -1.328125 L 6.40625 -1.328125 Z M 6.40625 -2.171875 "/>
</g>
<g id="glyph-0-21">
<path d="M 5.71875 -8.515625 L 1.3125 -8.515625 L 0.6875 -3.875 L 1.65625 -3.875 C 2.140625 -4.46875 2.5625 -4.671875 3.234375 -4.671875 C 4.375 -4.671875 5.078125 -3.890625 5.078125 -2.625 C 5.078125 -1.40625 4.375 -0.65625 3.21875 -0.65625 C 2.296875 -0.65625 1.734375 -1.125 1.46875 -2.09375 L 0.421875 -2.09375 C 0.5625 -1.390625 0.6875 -1.0625 0.9375 -0.75 C 1.421875 -0.09375 2.28125 0.28125 3.234375 0.28125 C 4.953125 0.28125 6.15625 -0.96875 6.15625 -2.765625 C 6.15625 -4.453125 5.046875 -5.609375 3.40625 -5.609375 C 2.8125 -5.609375 2.328125 -5.453125 1.84375 -5.09375 L 2.171875 -7.46875 L 5.71875 -7.46875 Z M 5.71875 -8.515625 "/>
</g>
<g id="glyph-1-0">
<path d="M -8.75 -5.9375 L -8.75 -4.9375 L -5.5 -4.9375 C -6.125 -4.53125 -6.46875 -3.859375 -6.46875 -3.015625 C -6.46875 -1.375 -5.15625 -0.3125 -3.15625 -0.3125 C -1.03125 -0.3125 0.28125 -1.34375 0.28125 -3.046875 C 0.28125 -3.90625 -0.046875 -4.515625 -0.828125 -5.046875 L 0 -5.046875 L 0 -5.9375 Z M -5.53125 -3.1875 C -5.53125 -4.265625 -4.578125 -4.9375 -3.078125 -4.9375 C -1.625 -4.9375 -0.65625 -4.25 -0.65625 -3.1875 C -0.65625 -2.09375 -1.625 -1.359375 -3.09375 -1.359375 C -4.5625 -1.359375 -5.53125 -2.09375 -5.53125 -3.1875 Z M -5.53125 -3.1875 "/>
</g>
<g id="glyph-1-1">
<path d="M -2.8125 -6.15625 C -3.765625 -6.15625 -4.34375 -6.078125 -4.8125 -5.90625 C -5.84375 -5.5 -6.46875 -4.53125 -6.46875 -3.359375 C -6.46875 -1.609375 -5.140625 -0.484375 -3.0625 -0.484375 C -0.984375 -0.484375 0.28125 -1.5625 0.28125 -3.34375 C 0.28125 -4.78125 -0.546875 -5.765625 -1.90625 -6.03125 L -1.90625 -5.015625 C -1.078125 -4.734375 -0.640625 -4.171875 -0.640625 -3.375 C -0.640625 -2.734375 -0.9375 -2.203125 -1.46875 -1.859375 C -1.828125 -1.625 -2.1875 -1.53125 -2.8125 -1.53125 Z M -3.625 -1.546875 C -4.78125 -1.625 -5.546875 -2.34375 -5.546875 -3.34375 C -5.546875 -4.375 -4.75 -5.078125 -3.625 -5.078125 Z M -3.625 -1.546875 "/>
</g>
<g id="glyph-1-2">
<path d="M -6.28125 -0.84375 L 0 -0.84375 L 0 -1.84375 L -3.46875 -1.84375 C -4.75 -1.84375 -5.59375 -2.515625 -5.59375 -3.546875 C -5.59375 -4.34375 -5.109375 -4.84375 -4.359375 -4.84375 L 0 -4.84375 L 0 -5.84375 L -4.75 -5.84375 C -5.796875 -5.84375 -6.46875 -5.0625 -6.46875 -3.859375 C -6.46875 -2.921875 -6.109375 -2.3125 -5.234375 -1.765625 L -6.28125 -1.765625 Z M -6.28125 -0.84375 "/>
</g>
<g id="glyph-1-3">
<path d="M -4.53125 -5.25 C -5.765625 -5.25 -6.46875 -4.421875 -6.46875 -2.96875 C -6.46875 -1.515625 -5.71875 -0.5625 -4.546875 -0.5625 C -3.5625 -0.5625 -3.09375 -1.0625 -2.734375 -2.5625 L -2.515625 -3.484375 C -2.34375 -4.1875 -2.09375 -4.46875 -1.640625 -4.46875 C -1.046875 -4.46875 -0.640625 -3.875 -0.640625 -3 C -0.640625 -2.453125 -0.796875 -2 -1.0625 -1.75 C -1.25 -1.59375 -1.421875 -1.53125 -1.875 -1.46875 L -1.875 -0.40625 C -0.421875 -0.453125 0.28125 -1.265625 0.28125 -2.921875 C 0.28125 -4.5 -0.5 -5.515625 -1.71875 -5.515625 C -2.65625 -5.515625 -3.171875 -4.984375 -3.46875 -3.734375 L -3.703125 -2.765625 C -3.890625 -1.953125 -4.15625 -1.609375 -4.59375 -1.609375 C -5.1875 -1.609375 -5.546875 -2.125 -5.546875 -2.9375 C -5.546875 -3.75 -5.203125 -4.171875 -4.53125 -4.203125 Z M -4.53125 -5.25 "/>
</g>
<g id="glyph-1-4">
<path d="M -6.28125 -1.796875 L -6.28125 -0.796875 L 0 -0.796875 L 0 -1.796875 Z M -8.75 -1.796875 L -8.75 -0.796875 L -7.484375 -0.796875 L -7.484375 -1.796875 Z M -8.75 -1.796875 "/>
</g>
<g id="glyph-1-5">
<path d="M -6.28125 -3.046875 L -6.28125 -2.015625 L -8.015625 -2.015625 L -8.015625 -1.015625 L -6.28125 -1.015625 L -6.28125 -0.171875 L -5.46875 -0.171875 L -5.46875 -1.015625 L -0.71875 -1.015625 C -0.078125 -1.015625 0.28125 -1.453125 0.28125 -2.234375 C 0.28125 -2.5 0.25 -2.71875 0.1875 -3.046875 L -0.640625 -3.046875 C -0.609375 -2.90625 -0.59375 -2.765625 -0.59375 -2.5625 C -0.59375 -2.140625 -0.71875 -2.015625 -1.15625 -2.015625 L -5.46875 -2.015625 L -5.46875 -3.046875 Z M -6.28125 -3.046875 "/>
</g>
<g id="glyph-1-6">
<path d="M -0.59375 -6.421875 C -0.5625 -6.3125 -0.5625 -6.265625 -0.5625 -6.203125 C -0.5625 -5.859375 -0.75 -5.65625 -1.0625 -5.65625 L -4.75 -5.65625 C -5.875 -5.65625 -6.46875 -4.84375 -6.46875 -3.296875 C -6.46875 -2.375 -6.203125 -1.640625 -5.734375 -1.21875 C -5.40625 -0.921875 -5.046875 -0.796875 -4.421875 -0.78125 L -4.421875 -1.78125 C -5.203125 -1.875 -5.546875 -2.328125 -5.546875 -3.265625 C -5.546875 -4.171875 -5.203125 -4.671875 -4.609375 -4.671875 L -4.34375 -4.671875 C -3.90625 -4.65625 -3.75 -4.4375 -3.640625 -3.625 C -3.46875 -2.203125 -3.421875 -1.984375 -3.265625 -1.609375 C -2.953125 -0.875 -2.40625 -0.5 -1.578125 -0.5 C -0.4375 -0.5 0.28125 -1.296875 0.28125 -2.5625 C 0.28125 -3.359375 0 -4 -0.640625 -4.703125 C 0 -4.78125 0.28125 -5.09375 0.28125 -5.734375 C 0.28125 -5.953125 0.25 -6.078125 0.171875 -6.421875 Z M -1.984375 -4.671875 C -1.640625 -4.671875 -1.4375 -4.578125 -1.15625 -4.265625 C -0.796875 -3.859375 -0.59375 -3.375 -0.59375 -2.78125 C -0.59375 -2 -0.96875 -1.546875 -1.609375 -1.546875 C -2.265625 -1.546875 -2.609375 -1.984375 -2.765625 -3.0625 C -2.90625 -4.125 -2.953125 -4.328125 -3.109375 -4.671875 Z M -8.875 -3 L -8.875 -1.640625 L -7.109375 -3.4375 L -7.109375 -4.15625 Z M -8.875 -3 "/>
</g>
<g id="glyph-1-7">
</g>
<g id="glyph-1-8">
<path d="M -4.171875 -5.65625 C -4.78125 -5.609375 -5.1875 -5.46875 -5.53125 -5.234375 C -6.125 -4.796875 -6.46875 -4.046875 -6.46875 -3.171875 C -6.46875 -1.46875 -5.125 -0.375 -3.03125 -0.375 C -1.015625 -0.375 0.28125 -1.453125 0.28125 -3.15625 C 0.28125 -4.65625 -0.625 -5.609375 -2.15625 -5.71875 L -2.15625 -4.71875 C -1.15625 -4.546875 -0.640625 -4.03125 -0.640625 -3.1875 C -0.640625 -2.078125 -1.546875 -1.421875 -3.03125 -1.421875 C -4.609375 -1.421875 -5.546875 -2.0625 -5.546875 -3.15625 C -5.546875 -4 -5.046875 -4.53125 -4.171875 -4.640625 Z M -4.171875 -5.65625 "/>
</g>
<g id="glyph-1-9">
<path d="M -6.28125 -0.828125 L 0 -0.828125 L 0 -1.84375 L -3.265625 -1.84375 C -4.78125 -1.84375 -5.453125 -2.46875 -5.40625 -3.859375 L -6.4375 -3.859375 C -6.453125 -3.6875 -6.46875 -3.59375 -6.46875 -3.46875 C -6.46875 -2.8125 -6.078125 -2.328125 -5.140625 -1.75 L -6.28125 -1.75 Z M -6.28125 -0.828125 "/>
</g>
<g id="glyph-1-10">
<path d="M -0.59375 -6.421875 C -0.5625 -6.3125 -0.5625 -6.265625 -0.5625 -6.203125 C -0.5625 -5.859375 -0.75 -5.65625 -1.0625 -5.65625 L -4.75 -5.65625 C -5.875 -5.65625 -6.46875 -4.84375 -6.46875 -3.296875 C -6.46875 -2.375 -6.203125 -1.640625 -5.734375 -1.21875 C -5.40625 -0.921875 -5.046875 -0.796875 -4.421875 -0.78125 L -4.421875 -1.78125 C -5.203125 -1.875 -5.546875 -2.328125 -5.546875 -3.265625 C -5.546875 -4.171875 -5.203125 -4.671875 -4.609375 -4.671875 L -4.34375 -4.671875 C -3.90625 -4.65625 -3.75 -4.4375 -3.640625 -3.625 C -3.46875 -2.203125 -3.421875 -1.984375 -3.265625 -1.609375 C -2.953125 -0.875 -2.40625 -0.5 -1.578125 -0.5 C -0.4375 -0.5 0.28125 -1.296875 0.28125 -2.5625 C 0.28125 -3.359375 0 -4 -0.640625 -4.703125 C 0 -4.78125 0.28125 -5.09375 0.28125 -5.734375 C 0.28125 -5.953125 0.25 -6.078125 0.171875 -6.421875 Z M -1.984375 -4.671875 C -1.640625 -4.671875 -1.4375 -4.578125 -1.15625 -4.265625 C -0.796875 -3.859375 -0.59375 -3.375 -0.59375 -2.78125 C -0.59375 -2 -0.96875 -1.546875 -1.609375 -1.546875 C -2.265625 -1.546875 -2.609375 -1.984375 -2.765625 -3.0625 C -2.90625 -4.125 -2.953125 -4.328125 -3.109375 -4.671875 Z M -1.984375 -4.671875 "/>
</g>
<g id="glyph-1-11">
<path d="M -8.671875 -3.296875 C -8.671875 -2.515625 -8.3125 -1.78125 -7.734375 -1.34375 C -6.953125 -0.796875 -5.8125 -0.515625 -4.203125 -0.515625 C -1.265625 -0.515625 0.28125 -1.46875 0.28125 -3.296875 C 0.28125 -5.09375 -1.265625 -6.078125 -4.125 -6.078125 C -5.8125 -6.078125 -6.9375 -5.8125 -7.734375 -5.25 C -8.328125 -4.8125 -8.671875 -4.109375 -8.671875 -3.296875 Z M -7.734375 -3.296875 C -7.734375 -4.4375 -6.578125 -5 -4.21875 -5 C -1.75 -5 -0.59375 -4.453125 -0.59375 -3.28125 C -0.59375 -2.15625 -1.796875 -1.59375 -4.1875 -1.59375 C -6.578125 -1.59375 -7.734375 -2.15625 -7.734375 -3.296875 Z M -7.734375 -3.296875 "/>
</g>
<g id="glyph-1-12">
<path d="M -1.25 -2.296875 L -1.25 -1.046875 L 0 -1.046875 L 0 -2.296875 Z M -1.25 -2.296875 "/>
</g>
<g id="glyph-1-13">
<path d="M -1.046875 -6.078125 L -1.046875 -1.59375 C -1.765625 -1.703125 -2.21875 -2.09375 -2.859375 -3.125 L -3.53125 -4.328125 C -4.1875 -5.515625 -5.078125 -6.125 -6.140625 -6.125 C -6.859375 -6.125 -7.53125 -5.84375 -8 -5.34375 C -8.453125 -4.84375 -8.671875 -4.21875 -8.671875 -3.40625 C -8.671875 -2.328125 -8.296875 -1.53125 -7.546875 -1.0625 C -7.09375 -0.75 -6.546875 -0.625 -5.671875 -0.59375 L -5.671875 -1.65625 C -6.265625 -1.6875 -6.609375 -1.765625 -6.90625 -1.90625 C -7.421875 -2.1875 -7.75 -2.734375 -7.75 -3.375 C -7.75 -4.328125 -7.0625 -5.046875 -6.125 -5.046875 C -5.421875 -5.046875 -4.828125 -4.65625 -4.390625 -3.90625 L -3.75 -2.796875 C -2.71875 -1.015625 -1.90625 -0.5 -0.015625 -0.40625 L -0.015625 -6.078125 Z M -1.046875 -6.078125 "/>
</g>
<g id="glyph-1-14">
<path d="M -2.09375 -3.921875 L 0 -3.921875 L 0 -4.984375 L -2.09375 -4.984375 L -2.09375 -6.234375 L -3.046875 -6.234375 L -3.046875 -4.984375 L -8.671875 -4.984375 L -8.671875 -4.203125 L -3.21875 -0.34375 L -2.09375 -0.34375 Z M -3.046875 -3.921875 L -3.046875 -1.265625 L -6.875 -3.921875 Z M -3.046875 -3.921875 "/>
</g>
<g id="glyph-1-15">
<path d="M -6.421875 -5.96875 C -7.84375 -5.765625 -8.671875 -4.859375 -8.671875 -3.5625 C -8.671875 -2.625 -8.21875 -1.78125 -7.4375 -1.28125 C -6.59375 -0.75 -5.53125 -0.515625 -3.953125 -0.515625 C -2.5 -0.515625 -1.578125 -0.71875 -0.796875 -1.234375 C -0.09375 -1.6875 0.28125 -2.4375 0.28125 -3.375 C 0.28125 -4.984375 -0.9375 -6.15625 -2.625 -6.15625 C -4.21875 -6.15625 -5.359375 -5.078125 -5.359375 -3.546875 C -5.359375 -2.71875 -5.046875 -2.046875 -4.40625 -1.59375 C -6.546875 -1.609375 -7.734375 -2.28125 -7.734375 -3.484375 C -7.734375 -4.234375 -7.265625 -4.75 -6.421875 -4.921875 Z M -4.421875 -3.421875 C -4.421875 -4.4375 -3.703125 -5.078125 -2.546875 -5.078125 C -1.453125 -5.078125 -0.65625 -4.359375 -0.65625 -3.390625 C -0.65625 -2.40625 -1.484375 -1.65625 -2.59375 -1.65625 C -3.671875 -1.65625 -4.421875 -2.375 -4.421875 -3.421875 Z M -4.421875 -3.421875 "/>
</g>
<g id="glyph-1-16">
<path d="M -4.578125 -4.6875 C -5.109375 -5.578125 -5.546875 -5.859375 -6.359375 -5.859375 C -7.734375 -5.859375 -8.671875 -4.8125 -8.671875 -3.296875 C -8.671875 -1.796875 -7.734375 -0.75 -6.375 -0.75 C -5.546875 -0.75 -5.125 -1.015625 -4.578125 -1.890625 C -4.078125 -0.921875 -3.375 -0.4375 -2.40625 -0.4375 C -0.828125 -0.4375 0.28125 -1.609375 0.28125 -3.296875 C 0.28125 -4.984375 -0.828125 -6.15625 -2.40625 -6.15625 C -3.375 -6.15625 -4.078125 -5.671875 -4.578125 -4.6875 Z M -7.734375 -3.296875 C -7.734375 -4.203125 -7.203125 -4.78125 -6.34375 -4.78125 C -5.515625 -4.78125 -4.984375 -4.1875 -4.984375 -3.296875 C -4.984375 -2.40625 -5.515625 -1.828125 -6.359375 -1.828125 C -7.203125 -1.828125 -7.734375 -2.40625 -7.734375 -3.296875 Z M -4.09375 -3.296875 C -4.09375 -4.359375 -3.390625 -5.078125 -2.390625 -5.078125 C -1.34375 -5.078125 -0.65625 -4.375 -0.65625 -3.28125 C -0.65625 -2.25 -1.375 -1.53125 -2.375 -1.53125 C -3.40625 -1.53125 -4.09375 -2.234375 -4.09375 -3.296875 Z M -4.09375 -3.296875 "/>
</g>
<g id="glyph-1-17">
<path d="M -6.1875 -3.109375 L 0 -3.109375 L 0 -4.15625 L -8.671875 -4.15625 L -8.671875 -3.46875 C -7.34375 -3.09375 -7.15625 -2.859375 -6.953125 -1.21875 L -6.1875 -1.21875 Z M -6.1875 -3.109375 "/>
</g>
</g>
<clipPath id="clip-0">
<path clip-rule="nonzero" d="M 232 59.039062 L 329.757812 59.039062 L 329.757812 103 L 232 103 Z M 232 59.039062 "/>
</clipPath>
<clipPath id="clip-1">
<path clip-rule="nonzero" d="M 231 59.039062 L 329.757812 59.039062 L 329.757812 103 L 231 103 Z M 231 59.039062 "/>
</clipPath>
</defs>
<rect x="-36" y="-36" width="432" height="432" fill="rgb(100%, 100%, 100%)" fill-opacity="1"/>
<path fill="none" stroke-width="0.75" stroke-linecap="round" stroke-linejoin="round" stroke="rgb(0%, 0%, 0%)" stroke-opacity="1" stroke-miterlimit="10" d="M 69.066406 284.308594 L 70.75 284.308594 Z M 69.066406 284.308594 "/>
<path fill="none" stroke-width="0.75" stroke-linecap="round" stroke-linejoin="round" stroke="rgb(0%, 0%, 0%)" stroke-opacity="1" stroke-miterlimit="10" d="M 70.75 284.308594 L 72.433594 284.308594 Z M 70.75 284.308594 "/>
<path fill="none" stroke-width="0.75" stroke-linecap="round" stroke-linejoin="round" stroke="rgb(0%, 0%, 0%)" stroke-opacity="1" stroke-miterlimit="10" d="M 74.113281 284.308594 L 75.796875 284.308594 Z M 74.113281 284.308594 "/>
<path fill="none" stroke-width="0.75" stroke-linecap="round" stroke-linejoin="round" stroke="rgb(0%, 0%, 0%)" stroke-opacity="1" stroke-miterlimit="10" d="M 75.796875 284.308594 L 77.480469 284.308594 Z M 75.796875 284.308594 "/>
<path fill="none" stroke-width="0.75" stroke-linecap="round" stroke-linejoin="round" stroke="rgb(0%, 0%, 0%)" stroke-opacity="1" stroke-miterlimit="10" d="M 79.160156 284.308594 L 80.84375 284.308594 Z M 79.160156 284.308594 "/>
<path fill="none" stroke-width="0.75" stroke-linecap="round" stroke-linejoin="round" stroke="rgb(0%, 0%, 0%)" stroke-opacity="1" stroke-miterlimit="10" d="M 80.84375 284.308594 L 82.527344 284.308594 Z M 80.84375 284.308594 "/>
<path fill="none" stroke-width="0.75" stroke-linecap="round" stroke-linejoin="round" stroke="rgb(0%, 0%, 0%)" stroke-opacity="1" stroke-miterlimit="10" d="M 84.207031 284.308594 L 85.890625 284.308594 Z M 84.207031 284.308594 "/>
<path fill="none" stroke-width="0.75" stroke-linecap="round" stroke-linejoin="round" stroke="rgb(0%, 0%, 0%)" stroke-opacity="1" stroke-miterlimit="10" d="M 85.890625 284.308594 L 87.574219 284.308594 Z M 85.890625 284.308594 "/>
<path fill="none" stroke-width="0.75" stroke-linecap="round" stroke-linejoin="round" stroke="rgb(0%, 0%, 0%)" stroke-opacity="1" stroke-miterlimit="10" d="M 89.253906 284.308594 L 90.9375 284.308594 Z M 89.253906 284.308594 "/>
<path fill="none" stroke-width="0.75" stroke-linecap="round" stroke-linejoin="round" stroke="rgb(0%, 0%, 0%)" stroke-opacity="1" stroke-miterlimit="10" d="M 90.9375 284.308594 L 92.621094 284.308594 Z M 90.9375 284.308594 "/>
<path fill="none" stroke-width="0.75" stroke-linecap="round" stroke-linejoin="round" stroke="rgb(0%, 0%, 0%)" stroke-opacity="1" stroke-miterlimit="10" d="M 94.300781 284.308594 L 95.984375 284.308594 Z M 94.300781 284.308594 "/>
<path fill="none" stroke-width="0.75" stroke-linecap="round" stroke-linejoin="round" stroke="rgb(0%, 0%, 0%)" stroke-opacity="1" stroke-miterlimit="10" d="M 95.984375 284.308594 L 97.667969 284.308594 Z M 95.984375 284.308594 "/>
<path fill="none" stroke-width="0.75" stroke-linecap="round" stroke-linejoin="round" stroke="rgb(0%, 0%, 0%)" stroke-opacity="1" stroke-miterlimit="10" d="M 99.347656 284.308594 L 101.03125 284.308594 Z M 99.347656 284.308594 "/>
<path fill="none" stroke-width="0.75" stroke-linecap="round" stroke-linejoin="round" stroke="rgb(0%, 0%, 0%)" stroke-opacity="1" stroke-miterlimit="10" d="M 101.03125 284.308594 L 102.714844 284.308594 Z M 101.03125 284.308594 "/>
<path fill="none" stroke-width="0.75" stroke-linecap="round" stroke-linejoin="round" stroke="rgb(0%, 0%, 0%)" stroke-opacity="1" stroke-miterlimit="10" d="M 104.394531 284.308594 L 106.078125 284.308594 Z M 104.394531 284.308594 "/>
<path fill="none" stroke-width="0.75" stroke-linecap="round" stroke-linejoin="round" stroke="rgb(0%, 0%, 0%)" stroke-opacity="1" stroke-miterlimit="10" d="M 106.078125 284.308594 L 107.761719 284.308594 Z M 106.078125 284.308594 "/>
<path fill="none" stroke-width="0.75" stroke-linecap="round" stroke-linejoin="round" stroke="rgb(0%, 0%, 0%)" stroke-opacity="1" stroke-miterlimit="10" d="M 109.441406 284.308594 L 111.125 284.308594 Z M 109.441406 284.308594 "/>
<path fill="none" stroke-width="0.75" stroke-linecap="round" stroke-linejoin="round" stroke="rgb(0%, 0%, 0%)" stroke-opacity="1" stroke-miterlimit="10" d="M 111.125 284.308594 L 112.808594 284.308594 Z M 111.125 284.308594 "/>
<path fill="none" stroke-width="0.75" stroke-linecap="round" stroke-linejoin="round" stroke="rgb(0%, 0%, 0%)" stroke-opacity="1" stroke-miterlimit="10" d="M 114.488281 284.308594 L 116.171875 284.308594 Z M 114.488281 284.308594 "/>
<path fill="none" stroke-width="0.75" stroke-linecap="round" stroke-linejoin="round" stroke="rgb(0%, 0%, 0%)" stroke-opacity="1" stroke-miterlimit="10" d="M 116.171875 284.308594 L 117.855469 284.308594 Z M 116.171875 284.308594 "/>
<path fill-rule="nonzero" fill="rgb(53.333333%, 80%, 93.333333%)" fill-opacity="1" stroke-width="0.75" stroke-linecap="round" stroke-linejoin="round" stroke="rgb(0%, 0%, 0%)" stroke-opacity="1" stroke-miterlimit="10" d="M 119.535156 284.308594 L 121.21875 284.308594 L 121.21875 283.058594 L 119.535156 283.058594 Z M 119.535156 284.308594 "/>
<path fill-rule="nonzero" fill="rgb(80%, 40%, 46.666667%)" fill-opacity="1" stroke-width="0.75" stroke-linecap="round" stroke-linejoin="round" stroke="rgb(0%, 0%, 0%)" stroke-opacity="1" stroke-miterlimit="10" d="M 121.21875 284.308594 L 122.902344 284.308594 L 122.902344 283.265625 L 121.21875 283.265625 Z M 121.21875 284.308594 "/>
<path fill-rule="nonzero" fill="rgb(53.333333%, 80%, 93.333333%)" fill-opacity="1" stroke-width="0.75" stroke-linecap="round" stroke-linejoin="round" stroke="rgb(0%, 0%, 0%)" stroke-opacity="1" stroke-miterlimit="10" d="M 124.582031 284.308594 L 126.265625 284.308594 L 126.265625 277.441406 L 124.582031 277.441406 Z M 124.582031 284.308594 "/>
<path fill-rule="nonzero" fill="rgb(80%, 40%, 46.666667%)" fill-opacity="1" stroke-width="0.75" stroke-linecap="round" stroke-linejoin="round" stroke="rgb(0%, 0%, 0%)" stroke-opacity="1" stroke-miterlimit="10" d="M 126.265625 284.308594 L 127.949219 284.308594 L 127.949219 278.5625 L 126.265625 278.5625 Z M 126.265625 284.308594 "/>
<path fill-rule="nonzero" fill="rgb(53.333333%, 80%, 93.333333%)" fill-opacity="1" stroke-width="0.75" stroke-linecap="round" stroke-linejoin="round" stroke="rgb(0%, 0%, 0%)" stroke-opacity="1" stroke-miterlimit="10" d="M 129.628906 284.308594 L 131.3125 284.308594 L 131.3125 263.707031 L 129.628906 263.707031 Z M 129.628906 284.308594 "/>
<path fill-rule="nonzero" fill="rgb(80%, 40%, 46.666667%)" fill-opacity="1" stroke-width="0.75" stroke-linecap="round" stroke-linejoin="round" stroke="rgb(0%, 0%, 0%)" stroke-opacity="1" stroke-miterlimit="10" d="M 131.3125 284.308594 L 132.996094 284.308594 L 132.996094 267.074219 L 131.3125 267.074219 Z M 131.3125 284.308594 "/>
<path fill-rule="nonzero" fill="rgb(53.333333%, 80%, 93.333333%)" fill-opacity="1" stroke-width="0.75" stroke-linecap="round" stroke-linejoin="round" stroke="rgb(0%, 0%, 0%)" stroke-opacity="1" stroke-miterlimit="10" d="M 134.675781 284.308594 L 136.359375 284.308594 L 136.359375 239.671875 L 134.675781 239.671875 Z M 134.675781 284.308594 "/>
<path fill-rule="nonzero" fill="rgb(80%, 40%, 46.666667%)" fill-opacity="1" stroke-width="0.75" stroke-linecap="round" stroke-linejoin="round" stroke="rgb(0%, 0%, 0%)" stroke-opacity="1" stroke-miterlimit="10" d="M 136.359375 284.308594 L 138.042969 284.308594 L 138.042969 246.96875 L 136.359375 246.96875 Z M 136.359375 284.308594 "/>
<path fill-rule="nonzero" fill="rgb(53.333333%, 80%, 93.333333%)" fill-opacity="1" stroke-width="0.75" stroke-linecap="round" stroke-linejoin="round" stroke="rgb(0%, 0%, 0%)" stroke-opacity="1" stroke-miterlimit="10" d="M 139.722656 284.308594 L 141.40625 284.308594 L 141.40625 206.199219 L 139.722656 206.199219 Z M 139.722656 284.308594 "/>
<path fill-rule="nonzero" fill="rgb(80%, 40%, 46.666667%)" fill-opacity="1" stroke-width="0.75" stroke-linecap="round" stroke-linejoin="round" stroke="rgb(0%, 0%, 0%)" stroke-opacity="1" stroke-miterlimit="10" d="M 141.40625 284.308594 L 143.089844 284.308594 L 143.089844 218.964844 L 141.40625 218.964844 Z M 141.40625 284.308594 "/>
<path fill-rule="nonzero" fill="rgb(53.333333%, 80%, 93.333333%)" fill-opacity="1" stroke-width="0.75" stroke-linecap="round" stroke-linejoin="round" stroke="rgb(0%, 0%, 0%)" stroke-opacity="1" stroke-miterlimit="10" d="M 144.769531 284.308594 L 146.453125 284.308594 L 146.453125 167.140625 L 144.769531 167.140625 Z M 144.769531 284.308594 "/>
<path fill-rule="nonzero" fill="rgb(80%, 40%, 46.666667%)" fill-opacity="1" stroke-width="0.75" stroke-linecap="round" stroke-linejoin="round" stroke="rgb(0%, 0%, 0%)" stroke-opacity="1" stroke-miterlimit="10" d="M 146.453125 284.308594 L 148.136719 284.308594 L 148.136719 186.292969 L 146.453125 186.292969 Z M 146.453125 284.308594 "/>
<path fill-rule="nonzero" fill="rgb(53.333333%, 80%, 93.333333%)" fill-opacity="1" stroke-width="0.75" stroke-linecap="round" stroke-linejoin="round" stroke="rgb(0%, 0%, 0%)" stroke-opacity="1" stroke-miterlimit="10" d="M 149.816406 284.308594 L 151.5 284.308594 L 151.5 128.085938 L 149.816406 128.085938 Z M 149.816406 284.308594 "/>
<path fill-rule="nonzero" fill="rgb(80%, 40%, 46.666667%)" fill-opacity="1" stroke-width="0.75" stroke-linecap="round" stroke-linejoin="round" stroke="rgb(0%, 0%, 0%)" stroke-opacity="1" stroke-miterlimit="10" d="M 151.5 284.308594 L 153.183594 284.308594 L 153.183594 153.621094 L 151.5 153.621094 Z M 151.5 284.308594 "/>
<path fill-rule="nonzero" fill="rgb(53.333333%, 80%, 93.333333%)" fill-opacity="1" stroke-width="0.75" stroke-linecap="round" stroke-linejoin="round" stroke="rgb(0%, 0%, 0%)" stroke-opacity="1" stroke-miterlimit="10" d="M 154.867188 284.308594 L 156.550781 284.308594 L 156.550781 94.609375 L 154.867188 94.609375 Z M 154.867188 284.308594 "/>
<path fill-rule="nonzero" fill="rgb(80%, 40%, 46.666667%)" fill-opacity="1" stroke-width="0.75" stroke-linecap="round" stroke-linejoin="round" stroke="rgb(0%, 0%, 0%)" stroke-opacity="1" stroke-miterlimit="10" d="M 156.546875 284.308594 L 158.230469 284.308594 L 158.230469 125.617188 L 156.546875 125.617188 Z M 156.546875 284.308594 "/>
<path fill-rule="nonzero" fill="rgb(53.333333%, 80%, 93.333333%)" fill-opacity="1" stroke-width="0.75" stroke-linecap="round" stroke-linejoin="round" stroke="rgb(0%, 0%, 0%)" stroke-opacity="1" stroke-miterlimit="10" d="M 159.914062 284.308594 L 161.597656 284.308594 L 161.597656 70.898438 L 159.914062 70.898438 Z M 159.914062 284.308594 "/>
<path fill-rule="nonzero" fill="rgb(80%, 40%, 46.666667%)" fill-opacity="1" stroke-width="0.75" stroke-linecap="round" stroke-linejoin="round" stroke="rgb(0%, 0%, 0%)" stroke-opacity="1" stroke-miterlimit="10" d="M 161.59375 284.308594 L 163.277344 284.308594 L 163.277344 105.78125 L 161.59375 105.78125 Z M 161.59375 284.308594 "/>
<path fill-rule="nonzero" fill="rgb(53.333333%, 80%, 93.333333%)" fill-opacity="1" stroke-width="0.75" stroke-linecap="round" stroke-linejoin="round" stroke="rgb(0%, 0%, 0%)" stroke-opacity="1" stroke-miterlimit="10" d="M 164.960938 284.308594 L 166.644531 284.308594 L 166.644531 59.042969 L 164.960938 59.042969 Z M 164.960938 284.308594 "/>
<path fill-rule="nonzero" fill="rgb(80%, 40%, 46.666667%)" fill-opacity="1" stroke-width="0.75" stroke-linecap="round" stroke-linejoin="round" stroke="rgb(0%, 0%, 0%)" stroke-opacity="1" stroke-miterlimit="10" d="M 166.640625 284.308594 L 168.324219 284.308594 L 168.324219 95.863281 L 166.640625 95.863281 Z M 166.640625 284.308594 "/>
<path fill-rule="nonzero" fill="rgb(53.333333%, 80%, 93.333333%)" fill-opacity="1" stroke-width="0.75" stroke-linecap="round" stroke-linejoin="round" stroke="rgb(0%, 0%, 0%)" stroke-opacity="1" stroke-miterlimit="10" d="M 170.007812 284.308594 L 171.691406 284.308594 L 171.691406 59.042969 L 170.007812 59.042969 Z M 170.007812 284.308594 "/>
<path fill-rule="nonzero" fill="rgb(80%, 40%, 46.666667%)" fill-opacity="1" stroke-width="0.75" stroke-linecap="round" stroke-linejoin="round" stroke="rgb(0%, 0%, 0%)" stroke-opacity="1" stroke-miterlimit="10" d="M 171.6875 284.308594 L 173.371094 284.308594 L 173.371094 95.863281 L 171.6875 95.863281 Z M 171.6875 284.308594 "/>
<path fill-rule="nonzero" fill="rgb(53.333333%, 80%, 93.333333%)" fill-opacity="1" stroke-width="0.75" stroke-linecap="round" stroke-linejoin="round" stroke="rgb(0%, 0%, 0%)" stroke-opacity="1" stroke-miterlimit="10" d="M 175.054688 284.308594 L 176.738281 284.308594 L 176.738281 69.28125 L 175.054688 69.28125 Z M 175.054688 284.308594 "/>
<path fill-rule="nonzero" fill="rgb(80%, 40%, 46.666667%)" fill-opacity="1" stroke-width="0.75" stroke-linecap="round" stroke-linejoin="round" stroke="rgb(0%, 0%, 0%)" stroke-opacity="1" stroke-miterlimit="10" d="M 176.734375 284.308594 L 178.417969 284.308594 L 178.417969 104.429688 L 176.734375 104.429688 Z M 176.734375 284.308594 "/>
<path fill-rule="nonzero" fill="rgb(53.333333%, 80%, 93.333333%)" fill-opacity="1" stroke-width="0.75" stroke-linecap="round" stroke-linejoin="round" stroke="rgb(0%, 0%, 0%)" stroke-opacity="1" stroke-miterlimit="10" d="M 180.101562 284.308594 L 181.785156 284.308594 L 181.785156 87.199219 L 180.101562 87.199219 Z M 180.101562 284.308594 "/>
<path fill-rule="nonzero" fill="rgb(80%, 40%, 46.666667%)" fill-opacity="1" stroke-width="0.75" stroke-linecap="round" stroke-linejoin="round" stroke="rgb(0%, 0%, 0%)" stroke-opacity="1" stroke-miterlimit="10" d="M 181.78125 284.308594 L 183.464844 284.308594 L 183.464844 119.417969 L 181.78125 119.417969 Z M 181.78125 284.308594 "/>
<path fill-rule="nonzero" fill="rgb(53.333333%, 80%, 93.333333%)" fill-opacity="1" stroke-width="0.75" stroke-linecap="round" stroke-linejoin="round" stroke="rgb(0%, 0%, 0%)" stroke-opacity="1" stroke-miterlimit="10" d="M 185.148438 284.308594 L 186.832031 284.308594 L 186.832031 109.941406 L 185.148438 109.941406 Z M 185.148438 284.308594 "/>
<path fill-rule="nonzero" fill="rgb(80%, 40%, 46.666667%)" fill-opacity="1" stroke-width="0.75" stroke-linecap="round" stroke-linejoin="round" stroke="rgb(0%, 0%, 0%)" stroke-opacity="1" stroke-miterlimit="10" d="M 186.828125 284.308594 L 188.511719 284.308594 L 188.511719 138.445312 L 186.828125 138.445312 Z M 186.828125 284.308594 "/>
<path fill-rule="nonzero" fill="rgb(53.333333%, 80%, 93.333333%)" fill-opacity="1" stroke-width="0.75" stroke-linecap="round" stroke-linejoin="round" stroke="rgb(0%, 0%, 0%)" stroke-opacity="1" stroke-miterlimit="10" d="M 190.195312 284.308594 L 191.878906 284.308594 L 191.878906 134.851562 L 190.195312 134.851562 Z M 190.195312 284.308594 "/>
<path fill-rule="nonzero" fill="rgb(80%, 40%, 46.666667%)" fill-opacity="1" stroke-width="0.75" stroke-linecap="round" stroke-linejoin="round" stroke="rgb(0%, 0%, 0%)" stroke-opacity="1" stroke-miterlimit="10" d="M 191.875 284.308594 L 193.558594 284.308594 L 193.558594 159.28125 L 191.875 159.28125 Z M 191.875 284.308594 "/>
<path fill-rule="nonzero" fill="rgb(53.333333%, 80%, 93.333333%)" fill-opacity="1" stroke-width="0.75" stroke-linecap="round" stroke-linejoin="round" stroke="rgb(0%, 0%, 0%)" stroke-opacity="1" stroke-miterlimit="10" d="M 195.242188 284.308594 L 196.925781 284.308594 L 196.925781 159.761719 L 195.242188 159.761719 Z M 195.242188 284.308594 "/>
<path fill-rule="nonzero" fill="rgb(80%, 40%, 46.666667%)" fill-opacity="1" stroke-width="0.75" stroke-linecap="round" stroke-linejoin="round" stroke="rgb(0%, 0%, 0%)" stroke-opacity="1" stroke-miterlimit="10" d="M 196.921875 284.308594 L 198.605469 284.308594 L 198.605469 180.121094 L 196.921875 180.121094 Z M 196.921875 284.308594 "/>
<path fill-rule="nonzero" fill="rgb(80%, 40%, 46.666667%)" fill-opacity="1" stroke-width="0.75" stroke-linecap="round" stroke-linejoin="round" stroke="rgb(0%, 0%, 0%)" stroke-opacity="1" stroke-miterlimit="10" d="M 201.96875 284.308594 L 203.652344 284.308594 L 203.652344 199.65625 L 201.96875 199.65625 Z M 201.96875 284.308594 "/>
<path fill-rule="nonzero" fill="rgb(80%, 40%, 46.666667%)" fill-opacity="1" stroke-width="0.75" stroke-linecap="round" stroke-linejoin="round" stroke="rgb(0%, 0%, 0%)" stroke-opacity="1" stroke-miterlimit="10" d="M 207.015625 284.308594 L 208.699219 284.308594 L 208.699219 217.085938 L 207.015625 217.085938 Z M 207.015625 284.308594 "/>
<path fill-rule="nonzero" fill="rgb(80%, 40%, 46.666667%)" fill-opacity="1" stroke-width="0.75" stroke-linecap="round" stroke-linejoin="round" stroke="rgb(0%, 0%, 0%)" stroke-opacity="1" stroke-miterlimit="10" d="M 212.0625 284.308594 L 213.746094 284.308594 L 213.746094 232.023438 L 212.0625 232.023438 Z M 212.0625 284.308594 "/>
<path fill-rule="nonzero" fill="rgb(80%, 40%, 46.666667%)" fill-opacity="1" stroke-width="0.75" stroke-linecap="round" stroke-linejoin="round" stroke="rgb(0%, 0%, 0%)" stroke-opacity="1" stroke-miterlimit="10" d="M 217.113281 284.308594 L 218.796875 284.308594 L 218.796875 244.40625 L 217.113281 244.40625 Z M 217.113281 284.308594 "/>
<path fill-rule="nonzero" fill="rgb(80%, 40%, 46.666667%)" fill-opacity="1" stroke-width="0.75" stroke-linecap="round" stroke-linejoin="round" stroke="rgb(0%, 0%, 0%)" stroke-opacity="1" stroke-miterlimit="10" d="M 222.160156 284.308594 L 223.84375 284.308594 L 223.84375 254.382812 L 222.160156 254.382812 Z M 222.160156 284.308594 "/>
<path fill-rule="nonzero" fill="rgb(80%, 40%, 46.666667%)" fill-opacity="1" stroke-width="0.75" stroke-linecap="round" stroke-linejoin="round" stroke="rgb(0%, 0%, 0%)" stroke-opacity="1" stroke-miterlimit="10" d="M 227.207031 284.308594 L 228.890625 284.308594 L 228.890625 262.21875 L 227.207031 262.21875 Z M 227.207031 284.308594 "/>
<path fill-rule="nonzero" fill="rgb(80%, 40%, 46.666667%)" fill-opacity="1" stroke-width="0.75" stroke-linecap="round" stroke-linejoin="round" stroke="rgb(0%, 0%, 0%)" stroke-opacity="1" stroke-miterlimit="10" d="M 232.253906 284.308594 L 233.9375 284.308594 L 233.9375 268.242188 L 232.253906 268.242188 Z M 232.253906 284.308594 "/>
<path fill-rule="nonzero" fill="rgb(80%, 40%, 46.666667%)" fill-opacity="1" stroke-width="0.75" stroke-linecap="round" stroke-linejoin="round" stroke="rgb(0%, 0%, 0%)" stroke-opacity="1" stroke-miterlimit="10" d="M 237.300781 284.308594 L 238.984375 284.308594 L 238.984375 272.785156 L 237.300781 272.785156 Z M 237.300781 284.308594 "/>
<path fill-rule="nonzero" fill="rgb(80%, 40%, 46.666667%)" fill-opacity="1" stroke-width="0.75" stroke-linecap="round" stroke-linejoin="round" stroke="rgb(0%, 0%, 0%)" stroke-opacity="1" stroke-miterlimit="10" d="M 242.347656 284.308594 L 244.03125 284.308594 L 244.03125 276.144531 L 242.347656 276.144531 Z M 242.347656 284.308594 "/>
<path fill-rule="nonzero" fill="rgb(80%, 40%, 46.666667%)" fill-opacity="1" stroke-width="0.75" stroke-linecap="round" stroke-linejoin="round" stroke="rgb(0%, 0%, 0%)" stroke-opacity="1" stroke-miterlimit="10" d="M 247.394531 284.308594 L 249.078125 284.308594 L 249.078125 278.59375 L 247.394531 278.59375 Z M 247.394531 284.308594 "/>
<path fill-rule="nonzero" fill="rgb(80%, 40%, 46.666667%)" fill-opacity="1" stroke-width="0.75" stroke-linecap="round" stroke-linejoin="round" stroke="rgb(0%, 0%, 0%)" stroke-opacity="1" stroke-miterlimit="10" d="M 252.441406 284.308594 L 254.125 284.308594 L 254.125 280.351562 L 252.441406 280.351562 Z M 252.441406 284.308594 "/>
<path fill-rule="nonzero" fill="rgb(80%, 40%, 46.666667%)" fill-opacity="1" stroke-width="0.75" stroke-linecap="round" stroke-linejoin="round" stroke="rgb(0%, 0%, 0%)" stroke-opacity="1" stroke-miterlimit="10" d="M 257.488281 284.308594 L 259.171875 284.308594 L 259.171875 281.597656 L 257.488281 281.597656 Z M 257.488281 284.308594 "/>
<path fill-rule="nonzero" fill="rgb(80%, 40%, 46.666667%)" fill-opacity="1" stroke-width="0.75" stroke-linecap="round" stroke-linejoin="round" stroke="rgb(0%, 0%, 0%)" stroke-opacity="1" stroke-miterlimit="10" d="M 262.535156 284.308594 L 264.21875 284.308594 L 264.21875 282.46875 L 262.535156 282.46875 Z M 262.535156 284.308594 "/>
<path fill-rule="nonzero" fill="rgb(80%, 40%, 46.666667%)" fill-opacity="1" stroke-width="0.75" stroke-linecap="round" stroke-linejoin="round" stroke="rgb(0%, 0%, 0%)" stroke-opacity="1" stroke-miterlimit="10" d="M 267.582031 284.308594 L 269.265625 284.308594 L 269.265625 283.070312 L 267.582031 283.070312 Z M 267.582031 284.308594 "/>
<path fill-rule="nonzero" fill="rgb(80%, 40%, 46.666667%)" fill-opacity="1" stroke-width="0.75" stroke-linecap="round" stroke-linejoin="round" stroke="rgb(0%, 0%, 0%)" stroke-opacity="1" stroke-miterlimit="10" d="M 272.628906 284.308594 L 274.3125 284.308594 L 274.3125 283.484375 L 272.628906 283.484375 Z M 272.628906 284.308594 "/>
<path fill-rule="nonzero" fill="rgb(80%, 40%, 46.666667%)" fill-opacity="1" stroke-width="0.75" stroke-linecap="round" stroke-linejoin="round" stroke="rgb(0%, 0%, 0%)" stroke-opacity="1" stroke-miterlimit="10" d="M 277.675781 284.308594 L 279.359375 284.308594 L 279.359375 283.761719 L 277.675781 283.761719 Z M 277.675781 284.308594 "/>
<path fill-rule="nonzero" fill="rgb(80%, 40%, 46.666667%)" fill-opacity="1" stroke-width="0.75" stroke-linecap="round" stroke-linejoin="round" stroke="rgb(0%, 0%, 0%)" stroke-opacity="1" stroke-miterlimit="10" d="M 282.722656 284.308594 L 284.40625 284.308594 L 284.40625 283.949219 L 282.722656 283.949219 Z M 282.722656 284.308594 "/>
<path fill-rule="nonzero" fill="rgb(80%, 40%, 46.666667%)" fill-opacity="1" stroke-width="0.75" stroke-linecap="round" stroke-linejoin="round" stroke="rgb(0%, 0%, 0%)" stroke-opacity="1" stroke-miterlimit="10" d="M 287.769531 284.308594 L 289.453125 284.308594 L 289.453125 284.074219 L 287.769531 284.074219 Z M 287.769531 284.308594 "/>
<path fill-rule="nonzero" fill="rgb(80%, 40%, 46.666667%)" fill-opacity="1" stroke-width="0.75" stroke-linecap="round" stroke-linejoin="round" stroke="rgb(0%, 0%, 0%)" stroke-opacity="1" stroke-miterlimit="10" d="M 292.816406 284.308594 L 294.5 284.308594 L 294.5 284.15625 L 292.816406 284.15625 Z M 292.816406 284.308594 "/>
<path fill-rule="nonzero" fill="rgb(80%, 40%, 46.666667%)" fill-opacity="1" stroke-width="0.75" stroke-linecap="round" stroke-linejoin="round" stroke="rgb(0%, 0%, 0%)" stroke-opacity="1" stroke-miterlimit="10" d="M 297.863281 284.308594 L 299.546875 284.308594 L 299.546875 284.210938 L 297.863281 284.210938 Z M 297.863281 284.308594 "/>
<path fill-rule="nonzero" fill="rgb(80%, 40%, 46.666667%)" fill-opacity="1" stroke-width="0.75" stroke-linecap="round" stroke-linejoin="round" stroke="rgb(0%, 0%, 0%)" stroke-opacity="1" stroke-miterlimit="10" d="M 302.910156 284.308594 L 304.59375 284.308594 L 304.59375 284.246094 L 302.910156 284.246094 Z M 302.910156 284.308594 "/>
<path fill-rule="nonzero" fill="rgb(80%, 40%, 46.666667%)" fill-opacity="1" stroke-width="0.75" stroke-linecap="round" stroke-linejoin="round" stroke="rgb(0%, 0%, 0%)" stroke-opacity="1" stroke-miterlimit="10" d="M 307.957031 284.308594 L 309.640625 284.308594 L 309.640625 284.269531 L 307.957031 284.269531 Z M 307.957031 284.308594 "/>
<path fill-rule="nonzero" fill="rgb(80%, 40%, 46.666667%)" fill-opacity="1" stroke-width="0.75" stroke-linecap="round" stroke-linejoin="round" stroke="rgb(0%, 0%, 0%)" stroke-opacity="1" stroke-miterlimit="10" d="M 313.003906 284.308594 L 314.6875 284.308594 L 314.6875 284.285156 L 313.003906 284.285156 Z M 313.003906 284.308594 "/>
<path fill-rule="nonzero" fill="rgb(80%, 40%, 46.666667%)" fill-opacity="1" stroke-width="0.75" stroke-linecap="round" stroke-linejoin="round" stroke="rgb(0%, 0%, 0%)" stroke-opacity="1" stroke-miterlimit="10" d="M 318.050781 284.308594 L 319.734375 284.308594 L 319.734375 284.292969 L 318.050781 284.292969 Z M 318.050781 284.308594 "/>
<g fill="rgb(0%, 0%, 0%)" fill-opacity="1">
<use xlink:href="#glyph-0-0" x="67.25" y="312.228516"/>
</g>
<g fill="rgb(0%, 0%, 0%)" fill-opacity="1">
<use xlink:href="#glyph-0-1" x="87.4375" y="312.228516"/>
</g>
<g fill="rgb(0%, 0%, 0%)" fill-opacity="1">
<use xlink:href="#glyph-0-2" x="107.625" y="312.228516"/>
</g>
<g fill="rgb(0%, 0%, 0%)" fill-opacity="1">
<use xlink:href="#glyph-0-3" x="129.359375" y="312.228516"/>
<use xlink:href="#glyph-0-4" x="136.359375" y="312.228516"/>
</g>
<g fill="rgb(0%, 0%, 0%)" fill-opacity="1">
<use xlink:href="#glyph-0-3" x="154.59375" y="312.228516"/>
<use xlink:href="#glyph-0-2" x="161.59375" y="312.228516"/>
</g>
<g fill="rgb(0%, 0%, 0%)" fill-opacity="1">
<use xlink:href="#glyph-0-5" x="179.828125" y="312.228516"/>
<use xlink:href="#glyph-0-4" x="186.828125" y="312.228516"/>
</g>
<g fill="rgb(0%, 0%, 0%)" fill-opacity="1">
<use xlink:href="#glyph-0-5" x="205.0625" y="312.228516"/>
<use xlink:href="#glyph-0-2" x="212.0625" y="312.228516"/>
</g>
<g fill="rgb(0%, 0%, 0%)" fill-opacity="1">
<use xlink:href="#glyph-0-4" x="230.300781" y="312.228516"/>
<use xlink:href="#glyph-0-4" x="237.300781" y="312.228516"/>
</g>
<g fill="rgb(0%, 0%, 0%)" fill-opacity="1">
<use xlink:href="#glyph-0-4" x="255.535156" y="312.228516"/>
<use xlink:href="#glyph-0-2" x="262.535156" y="312.228516"/>
</g>
<g fill="rgb(0%, 0%, 0%)" fill-opacity="1">
<use xlink:href="#glyph-0-1" x="280.769531" y="312.228516"/>
<use xlink:href="#glyph-0-4" x="287.769531" y="312.228516"/>
</g>
<g fill="rgb(0%, 0%, 0%)" fill-opacity="1">
<use xlink:href="#glyph-0-1" x="306.003906" y="312.228516"/>
<use xlink:href="#glyph-0-2" x="313.003906" y="312.228516"/>
</g>
<g fill="rgb(0%, 0%, 0%)" fill-opacity="1">
<use xlink:href="#glyph-0-6" x="145.398438" y="341.029297"/>
<use xlink:href="#glyph-0-7" x="152.398438" y="341.029297"/>
<use xlink:href="#glyph-0-8" x="159.398438" y="341.029297"/>
<use xlink:href="#glyph-0-9" x="169.398438" y="341.029297"/>
<use xlink:href="#glyph-0-10" x="176.398438" y="341.029297"/>
<use xlink:href="#glyph-0-11" x="180.398438" y="341.029297"/>
<use xlink:href="#glyph-0-12" x="187.398438" y="341.029297"/>
<use xlink:href="#glyph-0-9" x="190.398438" y="341.029297"/>
<use xlink:href="#glyph-0-13" x="197.398438" y="341.029297"/>
<use xlink:href="#glyph-0-14" x="203.398438" y="341.029297"/>
<use xlink:href="#glyph-0-10" x="206.398438" y="341.029297"/>
<use xlink:href="#glyph-0-15" x="210.398438" y="341.029297"/>
<use xlink:href="#glyph-0-16" x="217.398438" y="341.029297"/>
<use xlink:href="#glyph-0-17" x="223.398438" y="341.029297"/>
<use xlink:href="#glyph-0-11" x="226.398438" y="341.029297"/>
<use xlink:href="#glyph-0-6" x="233.398438" y="341.029297"/>
<use xlink:href="#glyph-0-17" x="240.398438" y="341.029297"/>
</g>
<g fill="rgb(0%, 0%, 0%)" fill-opacity="1">
<use xlink:href="#glyph-1-0" x="12.708984" y="215.800781"/>
<use xlink:href="#glyph-1-1" x="12.708984" y="208.800781"/>
<use xlink:href="#glyph-1-2" x="12.708984" y="201.800781"/>
<use xlink:href="#glyph-1-3" x="12.708984" y="194.800781"/>
<use xlink:href="#glyph-1-4" x="12.708984" y="188.800781"/>
<use xlink:href="#glyph-1-5" x="12.708984" y="185.800781"/>
<use xlink:href="#glyph-1-6" x="12.708984" y="182.800781"/>
<use xlink:href="#glyph-1-7" x="12.708984" y="175.800781"/>
<use xlink:href="#glyph-1-0" x="12.708984" y="172.800781"/>
<use xlink:href="#glyph-1-4" x="12.708984" y="165.800781"/>
<use xlink:href="#glyph-1-3" x="12.708984" y="162.800781"/>
<use xlink:href="#glyph-1-8" x="12.708984" y="156.800781"/>
<use xlink:href="#glyph-1-9" x="12.708984" y="150.800781"/>
<use xlink:href="#glyph-1-1" x="12.708984" y="146.800781"/>
<use xlink:href="#glyph-1-5" x="12.708984" y="139.800781"/>
<use xlink:href="#glyph-1-10" x="12.708984" y="136.800781"/>
</g>
<path fill="none" stroke-width="0.75" stroke-linecap="round" stroke-linejoin="round" stroke="rgb(0%, 0%, 0%)" stroke-opacity="1" stroke-miterlimit="10" d="M 59.039062 284.308594 L 59.039062 70.40625 "/>
<path fill="none" stroke-width="0.75" stroke-linecap="round" stroke-linejoin="round" stroke="rgb(0%, 0%, 0%)" stroke-opacity="1" stroke-miterlimit="10" d="M 59.039062 284.308594 L 51.839844 284.308594 "/>
<path fill="none" stroke-width="0.75" stroke-linecap="round" stroke-linejoin="round" stroke="rgb(0%, 0%, 0%)" stroke-opacity="1" stroke-miterlimit="10" d="M 59.039062 241.527344 L 51.839844 241.527344 "/>
<path fill="none" stroke-width="0.75" stroke-linecap="round" stroke-linejoin="round" stroke="rgb(0%, 0%, 0%)" stroke-opacity="1" stroke-miterlimit="10" d="M 59.039062 198.746094 L 51.839844 198.746094 "/>
<path fill="none" stroke-width="0.75" stroke-linecap="round" stroke-linejoin="round" stroke="rgb(0%, 0%, 0%)" stroke-opacity="1" stroke-miterlimit="10" d="M 59.039062 155.96875 L 51.839844 155.96875 "/>
<path fill="none" stroke-width="0.75" stroke-linecap="round" stroke-linejoin="round" stroke="rgb(0%, 0%, 0%)" stroke-opacity="1" stroke-miterlimit="10" d="M 59.039062 113.1875 L 51.839844 113.1875 "/>
<path fill="none" stroke-width="0.75" stroke-linecap="round" stroke-linejoin="round" stroke="rgb(0%, 0%, 0%)" stroke-opacity="1" stroke-miterlimit="10" d="M 59.039062 70.40625 L 51.839844 70.40625 "/>
<g fill="rgb(0%, 0%, 0%)" fill-opacity="1">
<use xlink:href="#glyph-1-11" x="41.509766" y="296.308594"/>
<use xlink:href="#glyph-1-12" x="41.509766" y="289.308594"/>
<use xlink:href="#glyph-1-11" x="41.509766" y="286.308594"/>
<use xlink:href="#glyph-1-11" x="41.509766" y="279.308594"/>
</g>
<g fill="rgb(0%, 0%, 0%)" fill-opacity="1">
<use xlink:href="#glyph-1-11" x="41.509766" y="253.527344"/>
<use xlink:href="#glyph-1-12" x="41.509766" y="246.527344"/>
<use xlink:href="#glyph-1-11" x="41.509766" y="243.527344"/>
<use xlink:href="#glyph-1-13" x="41.509766" y="236.527344"/>
</g>
<g fill="rgb(0%, 0%, 0%)" fill-opacity="1">
<use xlink:href="#glyph-1-11" x="41.509766" y="210.746094"/>
<use xlink:href="#glyph-1-12" x="41.509766" y="203.746094"/>
<use xlink:href="#glyph-1-11" x="41.509766" y="200.746094"/>
<use xlink:href="#glyph-1-14" x="41.509766" y="193.746094"/>
</g>
<g fill="rgb(0%, 0%, 0%)" fill-opacity="1">
<use xlink:href="#glyph-1-11" x="41.509766" y="167.96875"/>
<use xlink:href="#glyph-1-12" x="41.509766" y="160.96875"/>
<use xlink:href="#glyph-1-11" x="41.509766" y="157.96875"/>
<use xlink:href="#glyph-1-15" x="41.509766" y="150.96875"/>
</g>
<g fill="rgb(0%, 0%, 0%)" fill-opacity="1">
<use xlink:href="#glyph-1-11" x="41.509766" y="125.1875"/>
<use xlink:href="#glyph-1-12" x="41.509766" y="118.1875"/>
<use xlink:href="#glyph-1-11" x="41.509766" y="115.1875"/>
<use xlink:href="#glyph-1-16" x="41.509766" y="108.1875"/>
</g>
<g fill="rgb(0%, 0%, 0%)" fill-opacity="1">
<use xlink:href="#glyph-1-11" x="41.509766" y="82.40625"/>
<use xlink:href="#glyph-1-12" x="41.509766" y="75.40625"/>
<use xlink:href="#glyph-1-17" x="41.509766" y="72.40625"/>
<use xlink:href="#glyph-1-11" x="41.509766" y="65.40625"/>
</g>
<g clip-path="url(#clip-0)">
<path fill-rule="nonzero" fill="rgb(100%, 100%, 100%)" fill-opacity="1" d="M 232.121094 59.039062 L 329.761719 59.039062 L 329.761719 102.238281 L 232.121094 102.238281 Z M 232.121094 59.039062 "/>
</g>
<g clip-path="url(#clip-1)">
<path fill="none" stroke-width="0.75" stroke-linecap="round" stroke-linejoin="round" stroke="rgb(0%, 0%, 0%)" stroke-opacity="1" stroke-miterlimit="10" d="M 232.121094 59.039062 L 329.761719 59.039062 L 329.761719 102.238281 L 232.121094 102.238281 Z M 232.121094 59.039062 "/>
</g>
<path fill-rule="nonzero" fill="rgb(53.333333%, 80%, 93.333333%)" fill-opacity="1" stroke-width="0.75" stroke-linecap="round" stroke-linejoin="round" stroke="rgb(0%, 0%, 0%)" stroke-opacity="1" stroke-miterlimit="10" d="M 242.921875 69.839844 L 251.5625 69.839844 L 251.5625 77.039062 L 242.921875 77.039062 Z M 242.921875 69.839844 "/>
<path fill-rule="nonzero" fill="rgb(80%, 40%, 46.666667%)" fill-opacity="1" stroke-width="0.75" stroke-linecap="round" stroke-linejoin="round" stroke="rgb(0%, 0%, 0%)" stroke-opacity="1" stroke-miterlimit="10" d="M 242.921875 84.238281 L 251.5625 84.238281 L 251.5625 91.4375 L 242.921875 91.4375 Z M 242.921875 84.238281 "/>
<g fill="rgb(0%, 0%, 0%)" fill-opacity="1">
<use xlink:href="#glyph-0-18" x="262.359375" y="77.689453"/>
<use xlink:href="#glyph-0-15" x="269.359375" y="77.689453"/>
<use xlink:href="#glyph-0-10" x="276.359375" y="77.689453"/>
<use xlink:href="#glyph-0-19" x="280.359375" y="77.689453"/>
<use xlink:href="#glyph-0-8" x="287.359375" y="77.689453"/>
<use xlink:href="#glyph-0-12" x="297.359375" y="77.689453"/>
<use xlink:href="#glyph-0-20" x="300.359375" y="77.689453"/>
<use xlink:href="#glyph-0-12" x="307.359375" y="77.689453"/>
<use xlink:href="#glyph-0-5" x="310.359375" y="77.689453"/>
<use xlink:href="#glyph-0-21" x="317.359375" y="77.689453"/>
</g>
<g fill="rgb(0%, 0%, 0%)" fill-opacity="1">
<use xlink:href="#glyph-0-18" x="262.359375" y="92.087891"/>
<use xlink:href="#glyph-0-15" x="269.359375" y="92.087891"/>
<use xlink:href="#glyph-0-10" x="276.359375" y="92.087891"/>
<use xlink:href="#glyph-0-19" x="280.359375" y="92.087891"/>
<use xlink:href="#glyph-0-8" x="287.359375" y="92.087891"/>
<use xlink:href="#glyph-0-12" x="297.359375" y="92.087891"/>
<use xlink:href="#glyph-0-20" x="300.359375" y="92.087891"/>
<use xlink:href="#glyph-0-12" x="307.359375" y="92.087891"/>
<use xlink:href="#glyph-0-21" x="310.359375" y="92.087891"/>
<use xlink:href="#glyph-0-0" x="317.359375" y="92.087891"/>
</g>
</svg>
