<?xml version="1.0" encoding="UTF-8"?>
<svg xmlns="http://www.w3.org/2000/svg" xmlns:xlink="http://www.w3.org/1999/xlink" width="360pt" height="360pt" viewBox="0 0 360 360">
<defs>
<g>
<g id="glyph-0-0">
<path d="M 3.40625 -3.75 L 0.546875 -3.75 L 0.546875 -2.875 L 3.40625 -2.875 Z M 3.40625 -3.75 "/>
</g>
<g id="glyph-0-1">
<path d="M 3.921875 -2.09375 L 3.921875 0 L 4.984375 0 L 4.984375 -2.09375 L 6.234375 -2.09375 L 6.234375 -3.046875 L 4.984375 -3.046875 L 4.984375 -8.671875 L 4.203125 -8.671875 L 0.34375 -3.21875 L 0.34375 -2.09375 Z M 3.921875 -3.046875 L 1.265625 -3.046875 L 3.921875 -6.875 Z M 3.921875 -3.046875 "/>
</g>
<g id="glyph-0-2">
<path d="M 6.078125 -1.046875 L 1.59375 -1.046875 C 1.703125 -1.765625 2.09375 -2.21875 3.125 -2.859375 L 4.328125 -3.53125 C 5.515625 -4.1875 6.125 -5.078125 6.125 -6.140625 C 6.125 -6.859375 5.84375 -7.53125 5.34375 -8 C 4.84375 -8.453125 4.21875 -8.671875 3.40625 -8.671875 C 2.328125 -8.671875 1.53125 -8.296875 1.0625 -7.546875 C 0.75 -7.09375 0.625 -6.546875 0.59375 -5.671875 L 1.65625 -5.671875 C 1.6875 -6.265625 1.765625 -6.609375 1.90625 -6.90625 C 2.1875 -7.421875 2.734375 -7.75 3.375 -7.75 C 4.328125 -7.75 5.046875 -7.0625 5.046875 -6.125 C 5.046875 -5.421875 4.65625 -4.828125 3.90625 -4.390625 L 2.796875 -3.75 C 1.015625 -2.71875 0.5 -1.90625 0.40625 -0.015625 L 6.078125 -0.015625 Z M 6.078125 -1.046875 "/>
</g>
<g id="glyph-0-3">
<path d="M 3.296875 -8.671875 C 2.515625 -8.671875 1.78125 -8.3125 1.34375 -7.734375 C 0.796875 -6.953125 0.515625 -5.8125 0.515625 -4.203125 C 0.515625 -1.265625 1.46875 0.28125 3.296875 0.28125 C 5.09375 0.28125 6.078125 -1.265625 6.078125 -4.125 C 6.078125 -5.8125 5.8125 -6.9375 5.25 -7.734375 C 4.8125 -8.328125 4.109375 -8.671875 3.296875 -8.671875 Z M 3.296875 -7.734375 C 4.4375 -7.734375 5 -6.578125 5 -4.21875 C 5 -1.75 4.453125 -0.59375 3.28125 -0.59375 C 2.15625 -0.59375 1.59375 -1.796875 1.59375 -4.1875 C 1.59375 -6.578125 2.15625 -7.734375 3.296875 -7.734375 Z M 3.296875 -7.734375 "/>
</g>
<g id="glyph-0-4">
<path d="M 3.5 -3.25 L 5.609375 -6.28125 L 4.484375 -6.28125 L 2.96875 -4.015625 L 1.46875 -6.28125 L 0.328125 -6.28125 L 2.421875 -3.203125 L 0.203125 0 L 1.34375 0 L 2.9375 -2.40625 L 4.515625 0 L 5.671875 0 Z M 3.5 -3.25 "/>
</g>
<g id="glyph-1-0">
<path d="M -8.671875 -3.296875 C -8.671875 -2.515625 -8.3125 -1.78125 -7.734375 -1.34375 C -6.953125 -0.796875 -5.8125 -0.515625 -4.203125 -0.515625 C -1.265625 -0.515625 0.28125 -1.46875 0.28125 -3.296875 C 0.28125 -5.09375 -1.265625 -6.078125 -4.125 -6.078125 C -5.8125 -6.078125 -6.9375 -5.8125 -7.734375 -5.25 C -8.328125 -4.8125 -8.671875 -4.109375 -8.671875 -3.296875 Z M -7.734375 -3.296875 C -7.734375 -4.4375 -6.578125 -5 -4.21875 -5 C -1.75 -5 -0.59375 -4.453125 -0.59375 -3.28125 C -0.59375 -2.15625 -1.796875 -1.59375 -4.1875 -1.59375 C -6.578125 -1.59375 -7.734375 -2.15625 -7.734375 -3.296875 Z M -7.734375 -3.296875 "/>
</g>
<g id="glyph-1-1">
<path d="M -1.25 -2.296875 L -1.25 -1.046875 L 0 -1.046875 L 0 -2.296875 Z M -1.25 -2.296875 "/>
</g>
<g id="glyph-1-2">
<path d="M -6.1875 -3.109375 L 0 -3.109375 L 0 -4.15625 L -8.671875 -4.15625 L -8.671875 -3.46875 C -7.34375 -3.09375 -7.15625 -2.859375 -6.953125 -1.21875 L -6.1875 -1.21875 Z M -6.1875 -3.109375 "/>
</g>
<g id="glyph-1-3">
<path d="M -1.046875 -6.078125 L -1.046875 -1.59375 C -1.765625 -1.703125 -2.21875 -2.09375 -2.859375 -3.125 L -3.53125 -4.328125 C -4.1875 -5.515625 -5.078125 -6.125 -6.140625 -6.125 C -6.859375 -6.125 -7.53125 -5.84375 -8 -5.34375 C -8.453125 -4.84375 -8.671875 -4.21875 -8.671875 -3.40625 C -8.671875 -2.328125 -8.296875 -1.53125 -7.546875 -1.0625 C -7.09375 -0.75 -6.546875 -0.625 -5.671875 -0.59375 L -5.671875 -1.65625 C -6.265625 -1.6875 -6.609375 -1.765625 -6.90625 -1.90625 C -7.421875 -2.1875 -7.75 -2.734375 -7.75 -3.375 C -7.75 -4.328125 -7.0625 -5.046875 -6.125 -5.046875 C -5.421875 -5.046875 -4.828125 -4.65625 -4.390625 -3.90625 L -3.75 -2.796875 C -2.71875 -1.015625 -1.90625 -0.5 -0.015625 -0.40625 L -0.015625 -6.078125 Z M -1.046875 -6.078125 "/>
</g>
<g id="glyph-1-4">
<path d="M -4 -2.65625 L -4 -3.234375 C -4 -4.375 -3.453125 -4.984375 -2.40625 -4.984375 C -1.3125 -4.984375 -0.65625 -4.328125 -0.65625 -3.234375 C -0.65625 -2.078125 -1.25 -1.515625 -2.515625 -1.4375 L -2.515625 -0.390625 C -1.828125 -0.4375 -1.375 -0.546875 -0.984375 -0.75 C -0.140625 -1.203125 0.28125 -2.03125 0.28125 -3.1875 C 0.28125 -4.9375 -0.78125 -6.078125 -2.421875 -6.078125 C -3.53125 -6.078125 -4.125 -5.65625 -4.484375 -4.625 C -4.8125 -5.421875 -5.40625 -5.8125 -6.28125 -5.8125 C -7.78125 -5.8125 -8.671875 -4.84375 -8.671875 -3.234375 C -8.671875 -1.515625 -7.71875 -0.59375 -5.875 -0.5625 L -5.875 -1.625 C -6.40625 -1.625 -6.703125 -1.6875 -6.96875 -1.8125 C -7.46875 -2.046875 -7.75 -2.578125 -7.75 -3.234375 C -7.75 -4.171875 -7.1875 -4.734375 -6.25 -4.734375 C -5.640625 -4.734375 -5.265625 -4.53125 -5.0625 -4.0625 C -4.9375 -3.765625 -4.890625 -3.390625 -4.890625 -2.65625 Z M -4 -2.65625 "/>
</g>
<g id="glyph-1-5">
<path d="M -2.09375 -3.921875 L 0 -3.921875 L 0 -4.984375 L -2.09375 -4.984375 L -2.09375 -6.234375 L -3.046875 -6.234375 L -3.046875 -4.984375 L -8.671875 -4.984375 L -8.671875 -4.203125 L -3.21875 -0.34375 L -2.09375 -0.34375 Z M -3.046875 -3.921875 L -3.046875 -1.265625 L -6.875 -3.921875 Z M -3.046875 -3.921875 "/>
</g>
<g id="glyph-1-6">
<path d="M -8.75 -5.9375 L -8.75 -4.9375 L -5.5 -4.9375 C -6.125 -4.53125 -6.46875 -3.859375 -6.46875 -3.015625 C -6.46875 -1.375 -5.15625 -0.3125 -3.15625 -0.3125 C -1.03125 -0.3125 0.28125 -1.34375 0.28125 -3.046875 C 0.28125 -3.90625 -0.046875 -4.515625 -0.828125 -5.046875 L 0 -5.046875 L 0 -5.9375 Z M -5.53125 -3.1875 C -5.53125 -4.265625 -4.578125 -4.9375 -3.078125 -4.9375 C -1.625 -4.9375 -0.65625 -4.25 -0.65625 -3.1875 C -0.65625 -2.09375 -1.625 -1.359375 -3.09375 -1.359375 C -4.5625 -1.359375 -5.53125 -2.09375 -5.53125 -3.1875 Z M -5.53125 -3.1875 "/>
</g>
<g id="glyph-1-7">
<path d="M -2.8125 -6.15625 C -3.765625 -6.15625 -4.34375 -6.078125 -4.8125 -5.90625 C -5.84375 -5.5 -6.46875 -4.53125 -6.46875 -3.359375 C -6.46875 -1.609375 -5.140625 -0.484375 -3.0625 -0.484375 C -0.984375 -0.484375 0.28125 -1.5625 0.28125 -3.34375 C 0.28125 -4.78125 -0.546875 -5.765625 -1.90625 -6.03125 L -1.90625 -5.015625 C -1.078125 -4.734375 -0.640625 -4.171875 -0.640625 -3.375 C -0.640625 -2.734375 -0.9375 -2.203125 -1.46875 -1.859375 C -1.828125 -1.625 -2.1875 -1.53125 -2.8125 -1.53125 Z M -3.625 -1.546875 C -4.78125 -1.625 -5.546875 -2.34375 -5.546875 -3.34375 C -5.546875 -4.375 -4.75 -5.078125 -3.625 -5.078125 Z M -3.625 -1.546875 "/>
</g>
<g id="glyph-1-8">
<path d="M -6.28125 -0.84375 L 0 -0.84375 L 0 -1.84375 L -3.46875 -1.84375 C -4.75 -1.84375 -5.59375 -2.515625 -5.59375 -3.546875 C -5.59375 -4.34375 -5.109375 -4.84375 -4.359375 -4.84375 L 0 -4.84375 L 0 -5.84375 L -4.75 -5.84375 C -5.796875 -5.84375 -6.46875 -5.0625 -6.46875 -3.859375 C -6.46875 -2.921875 -6.109375 -2.3125 -5.234375 -1.765625 L -6.28125 -1.765625 Z M -6.28125 -0.84375 "/>
</g>
<g id="glyph-1-9">
<path d="M -4.53125 -5.25 C -5.765625 -5.25 -6.46875 -4.421875 -6.46875 -2.96875 C -6.46875 -1.515625 -5.71875 -0.5625 -4.546875 -0.5625 C -3.5625 -0.5625 -3.09375 -1.0625 -2.734375 -2.5625 L -2.515625 -3.484375 C -2.34375 -4.1875 -2.09375 -4.46875 -1.640625 -4.46875 C -1.046875 -4.46875 -0.640625 -3.875 -0.640625 -3 C -0.640625 -2.453125 -0.796875 -2 -1.0625 -1.75 C -1.25 -1.59375 -1.421875 -1.53125 -1.875 -1.46875 L -1.875 -0.40625 C -0.421875 -0.453125 0.28125 -1.265625 0.28125 -2.921875 C 0.28125 -4.5 -0.5 -5.515625 -1.71875 -5.515625 C -2.65625 -5.515625 -3.171875 -4.984375 -3.46875 -3.734375 L -3.703125 -2.765625 C -3.890625 -1.953125 -4.15625 -1.609375 -4.59375 -1.609375 C -5.1875 -1.609375 -5.546875 -2.125 -5.546875 -2.9375 C -5.546875 -3.75 -5.203125 -4.171875 -4.53125 -4.203125 Z M -4.53125 -5.25 "/>
</g>
<g id="glyph-1-10">
<path d="M -6.28125 -1.796875 L -6.28125 -0.796875 L 0 -0.796875 L 0 -1.796875 Z M -8.75 -1.796875 L -8.75 -0.796875 L -7.484375 -0.796875 L -7.484375 -1.796875 Z M -8.75 -1.796875 "/>
</g>
<g id="glyph-1-11">
<path d="M -6.28125 -3.046875 L -6.28125 -2.015625 L -8.015625 -2.015625 L -8.015625 -1.015625 L -6.28125 -1.015625 L -6.28125 -0.171875 L -5.46875 -0.171875 L -5.46875 -1.015625 L -0.71875 -1.015625 C -0.078125 -1.015625 0.28125 -1.453125 0.28125 -2.234375 C 0.28125 -2.5 0.25 -2.71875 0.1875 -3.046875 L -0.640625 -3.046875 C -0.609375 -2.90625 -0.59375 -2.765625 -0.59375 -2.5625 C -0.59375 -2.140625 -0.71875 -2.015625 -1.15625 -2.015625 L -5.46875 -2.015625 L -5.46875 -3.046875 Z M -6.28125 -3.046875 "/>
</g>
<g id="glyph-1-12">
<path d="M -0.59375 -6.421875 C -0.5625 -6.3125 -0.5625 -6.265625 -0.5625 -6.203125 C -0.5625 -5.859375 -0.75 -5.65625 -1.0625 -5.65625 L -4.75 -5.65625 C -5.875 -5.65625 -6.46875 -4.84375 -6.46875 -3.296875 C -6.46875 -2.375 -6.203125 -1.640625 -5.734375 -1.21875 C -5.40625 -0.921875 -5.046875 -0.796875 -4.421875 -0.78125 L -4.421875 -1.78125 C -5.203125 -1.875 -5.546875 -2.328125 -5.546875 -3.265625 C -5.546875 -4.171875 -5.203125 -4.671875 -4.609375 -4.671875 L -4.34375 -4.671875 C -3.90625 -4.65625 -3.75 -4.4375 -3.640625 -3.625 C -3.46875 -2.203125 -3.421875 -1.984375 -3.265625 -1.609375 C -2.953125 -0.875 -2.40625 -0.5 -1.578125 -0.5 C -0.4375 -0.5 0.28125 -1.296875 0.28125 -2.5625 C 0.28125 -3.359375 0 -4 -0.640625 -4.703125 C 0 -4.78125 0.28125 -5.09375 0.28125 -5.734375 C 0.28125 -5.953125 0.25 -6.078125 0.171875 -6.421875 Z M -1.984375 -4.671875 C -1.640625 -4.671875 -1.4375 -4.578125 -1.15625 -4.265625 C -0.796875 -3.859375 -0.59375 -3.375 -0.59375 -2.78125 C -0.59375 -2 -0.96875 -1.546875 -1.609375 -1.546875 C -2.265625 -1.546875 -2.609375 -1.984375 -2.765625 -3.0625 C -2.90625 -4.125 -2.953125 -4.328125 -3.109375 -4.671875 Z M -8.875 -3 L -8.875 -1.640625 L -7.109375 -3.4375 L -7.109375 -4.15625 Z M -8.875 -3 "/>
</g>
<g id="glyph-2-0">
<path d="M 6.203125 -7 L 5.359375 -7 L 5.359375 -1.28125 L 1.703125 -7 L 0.734375 -7 L 0.734375 0 L 1.578125 0 L 1.578125 -5.671875 L 5.1875 0 L 6.203125 0 Z M 6.203125 -7 "/>
</g>
<g id="glyph-2-1">
<path d="M 2.265625 -7 C 1.3125 -5.734375 0.703125 -3.984375 0.703125 -2.484375 C 0.703125 -0.96875 1.3125 0.78125 2.265625 2.03125 L 2.796875 2.03125 C 1.953125 0.65625 1.484375 -0.953125 1.484375 -2.484375 C 1.484375 -4.015625 1.953125 -5.625 2.796875 -7 Z M 2.265625 -7 "/>
</g>
<g id="glyph-2-2">
<path d="M 2.640625 -6.9375 C 2 -6.9375 1.421875 -6.65625 1.078125 -6.171875 C 0.640625 -5.5625 0.40625 -4.640625 0.40625 -3.359375 C 0.40625 -1.015625 1.1875 0.21875 2.640625 0.21875 C 4.078125 0.21875 4.859375 -1.015625 4.859375 -3.296875 C 4.859375 -4.640625 4.65625 -5.546875 4.203125 -6.171875 C 3.84375 -6.65625 3.28125 -6.9375 2.640625 -6.9375 Z M 2.640625 -6.1875 C 3.546875 -6.1875 4 -5.25 4 -3.375 C 4 -1.40625 3.5625 -0.484375 2.625 -0.484375 C 1.734375 -0.484375 1.28125 -1.4375 1.28125 -3.34375 C 1.28125 -5.25 1.734375 -6.1875 2.640625 -6.1875 Z M 2.640625 -6.1875 "/>
</g>
<g id="glyph-2-3">
<path d="M 0.828125 -1 L 0.828125 0 L 1.40625 0 L 1.40625 0.171875 C 1.40625 0.828125 1.28125 1.03125 0.828125 1.046875 L 0.828125 1.40625 C 1.46875 1.421875 1.84375 0.96875 1.84375 0.15625 L 1.84375 -1 Z M 0.828125 -1 "/>
</g>
<g id="glyph-2-4">
<path d="M 2.484375 -4.9375 L 2.484375 0 L 3.328125 0 L 3.328125 -6.9375 L 2.765625 -6.9375 C 2.46875 -5.875 2.28125 -5.734375 0.984375 -5.5625 L 0.984375 -4.9375 Z M 2.484375 -4.9375 "/>
</g>
<g id="glyph-2-5">
<path d="M 0.890625 2.03125 C 1.859375 0.78125 2.453125 -0.96875 2.453125 -2.46875 C 2.453125 -3.984375 1.859375 -5.734375 0.890625 -7 L 0.359375 -7 C 1.203125 -5.625 1.671875 -4.015625 1.671875 -2.46875 C 1.671875 -0.953125 1.203125 0.671875 0.359375 2.03125 Z M 0.890625 2.03125 "/>
</g>
<g id="glyph-2-6">
<path d="M 4.859375 -0.828125 L 1.28125 -0.828125 C 1.359375 -1.40625 1.671875 -1.78125 2.5 -2.28125 L 3.46875 -2.828125 C 4.40625 -3.34375 4.90625 -4.0625 4.90625 -4.90625 C 4.90625 -5.484375 4.671875 -6.03125 4.265625 -6.40625 C 3.859375 -6.765625 3.375 -6.9375 2.71875 -6.9375 C 1.859375 -6.9375 1.21875 -6.625 0.84375 -6.03125 C 0.609375 -5.671875 0.5 -5.234375 0.484375 -4.53125 L 1.328125 -4.53125 C 1.359375 -5.015625 1.40625 -5.28125 1.53125 -5.515625 C 1.75 -5.9375 2.1875 -6.203125 2.703125 -6.203125 C 3.46875 -6.203125 4.03125 -5.640625 4.03125 -4.890625 C 4.03125 -4.34375 3.71875 -3.859375 3.125 -3.515625 L 2.234375 -3 C 0.8125 -2.171875 0.40625 -1.53125 0.328125 -0.015625 L 4.859375 -0.015625 Z M 4.859375 -0.828125 "/>
</g>
<g id="glyph-2-7">
<path d="M 2.71875 -3 L 0.4375 -3 L 0.4375 -2.296875 L 2.71875 -2.296875 Z M 2.71875 -3 "/>
</g>
</g>
<clipPath id="clip-0">
<path clip-rule="nonzero" d="M 272 59.039062 L 329.757812 59.039062 L 329.757812 106 L 272 106 Z M 272 59.039062 "/>
</clipPath>
<clipPath id="clip-1">
<path clip-rule="nonzero" d="M 271 59.039062 L 329.757812 59.039062 L 329.757812 106 L 271 106 Z M 271 59.039062 "/>
</clipPath>
</defs>
<rect x="-36" y="-36" width="432" height="432" fill="rgb(100%, 100%, 100%)" fill-opacity="1"/>
<path fill="none" stroke-width="2.25" stroke-linecap="round" stroke-linejoin="round" stroke="rgb(53.333333%, 80%, 93.333333%)" stroke-opacity="1" stroke-miterlimit="10" d="M 69.066406 278.132812 L 76.335938 278.132812 L 76.585938 278.128906 L 80.597656 278.128906 L 80.847656 278.125 L 83.105469 278.125 L 83.355469 278.121094 L 84.609375 278.121094 L 84.859375 278.117188 L 86.113281 278.117188 L 86.363281 278.113281 L 87.113281 278.113281 L 87.367188 278.109375 L 88.117188 278.109375 L 88.367188 278.105469 L 88.871094 278.105469 L 89.121094 278.101562 L 89.621094 278.101562 L 89.871094 278.097656 L 90.375 278.097656 L 90.625 278.09375 L 90.875 278.09375 L 91.125 278.089844 L 91.375 278.089844 L 91.625 278.085938 L 91.878906 278.085938 L 92.128906 278.082031 L 92.378906 278.082031 L 92.628906 278.078125 L 92.878906 278.078125 L 93.128906 278.074219 L 93.382812 278.070312 L 93.632812 278.070312 L 94.132812 278.0625 L 94.382812 278.0625 L 94.632812 278.058594 L 94.886719 278.054688 L 96.136719 278.035156 L 96.390625 278.035156 L 96.640625 278.027344 L 97.390625 278.015625 L 97.644531 278.011719 L 97.894531 278.007812 L 98.144531 278 L 98.644531 277.992188 L 98.894531 277.984375 L 99.148438 277.980469 L 99.398438 277.972656 L 99.648438 277.96875 L 100.148438 277.953125 L 100.398438 277.949219 L 100.652344 277.941406 L 101.902344 277.902344 L 102.15625 277.894531 L 102.40625 277.882812 L 102.65625 277.875 L 102.90625 277.863281 L 103.15625 277.855469 L 103.40625 277.84375 L 103.660156 277.832031 L 103.910156 277.824219 L 104.410156 277.800781 L 104.660156 277.785156 L 104.910156 277.773438 L 105.164062 277.761719 L 105.414062 277.746094 L 105.664062 277.734375 L 106.414062 277.6875 L 106.667969 277.671875 L 107.167969 277.640625 L 107.417969 277.621094 L 107.667969 277.605469 L 107.921875 277.585938 L 108.671875 277.527344 L 108.921875 277.503906 L 109.171875 277.484375 L 109.425781 277.460938 L 110.175781 277.390625 L 110.675781 277.335938 L 110.929688 277.3125 L 111.179688 277.28125 L 111.429688 277.253906 L 111.679688 277.222656 L 111.929688 277.195312 L 112.179688 277.164062 L 112.433594 277.128906 L 112.683594 277.097656 L 113.433594 276.992188 L 113.683594 276.953125 L 113.9375 276.914062 L 114.4375 276.835938 L 114.9375 276.75 L 115.1875 276.703125 L 115.441406 276.660156 L 115.691406 276.613281 L 116.691406 276.410156 L 116.945312 276.355469 L 117.195312 276.300781 L 117.695312 276.183594 L 117.945312 276.121094 L 118.199219 276.058594 L 118.449219 275.996094 L 118.949219 275.863281 L 119.449219 275.722656 L 119.703125 275.648438 L 119.953125 275.574219 L 120.453125 275.417969 L 120.953125 275.253906 L 121.207031 275.167969 L 121.457031 275.082031 L 121.707031 274.992188 L 122.207031 274.804688 L 122.457031 274.707031 L 122.710938 274.605469 L 122.960938 274.503906 L 123.460938 274.292969 L 123.710938 274.183594 L 123.960938 274.070312 L 124.214844 273.953125 L 124.464844 273.835938 L 124.714844 273.714844 L 124.964844 273.589844 L 125.464844 273.332031 L 125.71875 273.199219 L 125.96875 273.0625 L 126.21875 272.921875 L 126.71875 272.632812 L 126.96875 272.480469 L 127.222656 272.328125 L 127.722656 272.007812 L 127.972656 271.84375 L 128.222656 271.675781 L 128.476562 271.503906 L 128.726562 271.328125 L 129.226562 270.960938 L 129.476562 270.773438 L 129.726562 270.582031 L 129.980469 270.382812 L 130.230469 270.183594 L 130.480469 269.976562 L 130.730469 269.765625 L 130.980469 269.550781 L 131.230469 269.332031 L 131.484375 269.105469 L 131.734375 268.878906 L 131.984375 268.644531 L 132.234375 268.40625 L 132.734375 267.914062 L 132.988281 267.660156 L 133.488281 267.136719 L 133.988281 266.589844 L 134.238281 266.308594 L 134.492188 266.023438 L 134.742188 265.730469 L 135.242188 265.128906 L 135.492188 264.816406 L 135.742188 264.5 L 135.996094 264.179688 L 136.246094 263.851562 L 136.496094 263.515625 L 136.746094 263.175781 L 136.996094 262.828125 L 137.246094 262.472656 L 137.5 262.113281 L 137.75 261.746094 L 138 261.375 L 138.25 260.992188 L 138.5 260.605469 L 138.753906 260.210938 L 139.003906 259.808594 L 139.253906 259.402344 L 139.503906 258.984375 L 139.753906 258.5625 L 140.003906 258.132812 L 140.257812 257.695312 L 140.507812 257.25 L 140.757812 256.796875 L 141.007812 256.335938 L 141.257812 255.867188 L 141.507812 255.390625 L 141.761719 254.90625 L 142.011719 254.417969 L 142.261719 253.917969 L 142.511719 253.410156 L 142.761719 252.894531 L 143.011719 252.367188 L 143.265625 251.835938 L 143.515625 251.296875 L 143.765625 250.746094 L 144.015625 250.1875 L 144.265625 249.625 L 144.515625 249.050781 L 144.769531 248.464844 L 145.019531 247.875 L 145.269531 247.273438 L 145.519531 246.664062 L 145.769531 246.046875 L 146.019531 245.417969 L 146.273438 244.785156 L 146.523438 244.136719 L 146.773438 243.484375 L 147.023438 242.820312 L 147.273438 242.148438 L 147.523438 241.46875 L 147.777344 240.777344 L 148.027344 240.078125 L 148.277344 239.371094 L 148.527344 238.652344 L 148.777344 237.925781 L 149.03125 237.1875 L 149.28125 236.441406 L 149.53125 235.6875 L 149.78125 234.921875 L 150.03125 234.148438 L 150.28125 233.367188 L 150.535156 232.574219 L 150.785156 231.773438 L 151.035156 230.960938 L 151.285156 230.140625 L 151.535156 229.308594 L 151.785156 228.46875 L 152.039062 227.621094 L 152.289062 226.761719 L 152.539062 225.894531 L 152.789062 225.019531 L 153.039062 224.132812 L 153.289062 223.234375 L 153.542969 222.332031 L 153.792969 221.417969 L 154.042969 220.492188 L 154.292969 219.5625 L 154.542969 218.617188 L 154.792969 217.667969 L 155.046875 216.707031 L 155.296875 215.738281 L 155.546875 214.761719 L 155.796875 213.773438 L 156.046875 212.78125 L 156.296875 211.773438 L 156.550781 210.761719 L 156.800781 209.742188 L 157.050781 208.710938 L 157.300781 207.671875 L 157.550781 206.625 L 157.800781 205.570312 L 158.054688 204.503906 L 158.304688 203.433594 L 158.554688 202.355469 L 158.804688 201.265625 L 159.054688 200.171875 L 159.308594 199.066406 L 159.558594 197.957031 L 159.808594 196.839844 L 160.058594 195.714844 L 160.308594 194.582031 L 160.558594 193.441406 L 160.8125 192.292969 L 161.0625 191.140625 L 161.3125 189.980469 L 161.5625 188.8125 L 161.8125 187.640625 L 162.0625 186.460938 L 162.316406 185.273438 L 162.566406 184.082031 L 162.816406 182.886719 L 163.066406 181.683594 L 163.316406 180.476562 L 163.566406 179.261719 L 163.820312 178.042969 L 164.070312 176.820312 L 164.570312 174.359375 L 164.820312 173.121094 L 165.070312 171.878906 L 165.324219 170.636719 L 165.574219 169.386719 L 166.074219 166.878906 L 166.324219 165.621094 L 166.574219 164.359375 L 166.828125 163.09375 L 167.078125 161.828125 L 167.578125 159.289062 L 168.078125 156.742188 L 168.332031 155.464844 L 168.582031 154.191406 L 169.332031 150.359375 L 169.585938 149.082031 L 169.835938 147.800781 L 170.085938 146.527344 L 170.585938 143.972656 L 170.835938 142.699219 L 171.089844 141.429688 L 171.339844 140.15625 L 172.089844 136.359375 L 172.339844 135.101562 L 172.59375 133.84375 L 172.84375 132.589844 L 173.09375 131.339844 L 173.34375 130.09375 L 173.59375 128.851562 L 173.84375 127.617188 L 174.097656 126.382812 L 174.347656 125.15625 L 174.597656 123.9375 L 174.847656 122.722656 L 175.097656 121.511719 L 175.347656 120.308594 L 175.601562 119.113281 L 175.851562 117.925781 L 176.101562 116.742188 L 176.351562 115.570312 L 176.601562 114.402344 L 176.851562 113.242188 L 177.105469 112.09375 L 177.355469 110.953125 L 177.605469 109.820312 L 177.855469 108.695312 L 178.105469 107.582031 L 178.355469 106.480469 L 178.609375 105.386719 L 178.859375 104.304688 L 179.109375 103.230469 L 179.359375 102.167969 L 179.609375 101.121094 L 179.863281 100.082031 L 180.113281 99.054688 L 180.363281 98.039062 L 180.613281 97.039062 L 180.863281 96.046875 L 181.113281 95.070312 L 181.367188 94.109375 L 181.617188 93.15625 L 181.867188 92.222656 L 182.117188 91.296875 L 182.367188 90.390625 L 182.617188 89.496094 L 182.871094 88.617188 L 183.121094 87.753906 L 183.371094 86.902344 L 183.621094 86.070312 L 183.871094 85.25 L 184.121094 84.449219 L 184.375 83.664062 L 184.625 82.894531 L 184.875 82.140625 L 185.125 81.40625 L 185.375 80.683594 L 185.625 79.984375 L 185.878906 79.296875 L 186.128906 78.628906 L 186.378906 77.980469 L 186.628906 77.351562 L 186.878906 76.738281 L 187.128906 76.140625 L 187.382812 75.566406 L 187.632812 75.007812 L 187.882812 74.46875 L 188.132812 73.949219 L 188.382812 73.449219 L 188.632812 72.964844 L 188.886719 72.503906 L 189.136719 72.0625 L 189.386719 71.636719 L 189.636719 71.234375 L 189.886719 70.851562 L 190.136719 70.488281 L 190.390625 70.144531 L 190.640625 69.824219 L 190.890625 69.519531 L 191.140625 69.238281 L 191.390625 68.976562 L 191.644531 68.738281 L 191.894531 68.515625 L 192.144531 68.316406 L 192.394531 68.140625 L 192.644531 67.980469 L 192.894531 67.84375 L 193.148438 67.730469 L 193.398438 67.636719 L 193.648438 67.5625 L 193.898438 67.507812 L 194.148438 67.476562 L 194.398438 67.464844 L 194.652344 67.476562 L 194.902344 67.507812 L 195.152344 67.5625 L 195.402344 67.636719 L 195.652344 67.730469 L 195.902344 67.84375 L 196.15625 67.980469 L 196.40625 68.140625 L 196.65625 68.316406 L 196.90625 68.515625 L 197.15625 68.738281 L 197.40625 68.976562 L 197.660156 69.238281 L 197.910156 69.519531 L 198.160156 69.824219 L 198.410156 70.144531 L 198.660156 70.488281 L 198.910156 70.851562 L 199.164062 71.234375 L 199.414062 71.636719 L 199.664062 72.0625 L 199.914062 72.503906 L 200.164062 72.964844 L 200.414062 73.449219 L 200.667969 73.949219 L 200.917969 74.46875 L 201.167969 75.007812 L 201.417969 75.566406 L 201.667969 76.140625 L 201.921875 76.738281 L 202.171875 77.351562 L 202.421875 77.980469 L 202.671875 78.628906 L 202.921875 79.296875 L 203.171875 79.984375 L 203.425781 80.683594 L 203.675781 81.40625 L 203.925781 82.140625 L 204.175781 82.894531 L 204.425781 83.664062 L 204.675781 84.449219 L 204.929688 85.25 L 205.179688 86.070312 L 205.429688 86.902344 L 205.679688 87.753906 L 205.929688 88.617188 L 206.179688 89.496094 L 206.433594 90.390625 L 206.683594 91.296875 L 206.933594 92.222656 L 207.183594 93.15625 L 207.433594 94.109375 L 207.683594 95.070312 L 207.9375 96.046875 L 208.1875 97.039062 L 208.4375 98.039062 L 208.6875 99.054688 L 208.9375 100.082031 L 209.1875 101.121094 L 209.441406 102.167969 L 209.691406 103.230469 L 209.941406 104.304688 L 210.191406 105.386719 L 210.441406 106.480469 L 210.691406 107.582031 L 210.945312 108.695312 L 211.195312 109.820312 L 211.445312 110.953125 L 211.695312 112.09375 L 211.945312 113.242188 L 212.199219 114.402344 L 212.449219 115.570312 L 212.699219 116.742188 L 212.949219 117.925781 L 213.199219 119.113281 L 213.449219 120.308594 L 213.703125 121.511719 L 213.953125 122.722656 L 214.203125 123.9375 L 214.453125 125.15625 L 214.703125 126.382812 L 214.953125 127.617188 L 215.207031 128.851562 L 215.457031 130.09375 L 215.707031 131.339844 L 215.957031 132.589844 L 216.207031 133.84375 L 216.457031 135.101562 L 216.710938 136.359375 L 217.460938 140.15625 L 217.710938 141.429688 L 217.960938 142.699219 L 218.214844 143.972656 L 218.714844 146.527344 L 218.964844 147.800781 L 219.214844 149.082031 L 219.464844 150.359375 L 219.71875 151.636719 L 220.21875 154.191406 L 220.46875 155.464844 L 220.71875 156.742188 L 220.96875 158.015625 L 221.222656 159.289062 L 221.722656 161.828125 L 222.222656 164.359375 L 222.476562 165.621094 L 222.726562 166.878906 L 223.226562 169.386719 L 223.476562 170.636719 L 223.726562 171.878906 L 223.980469 173.121094 L 224.230469 174.359375 L 224.730469 176.820312 L 224.980469 178.042969 L 225.230469 179.261719 L 225.484375 180.476562 L 225.734375 181.683594 L 225.984375 182.886719 L 226.234375 184.082031 L 226.484375 185.273438 L 226.734375 186.460938 L 226.988281 187.640625 L 227.238281 188.8125 L 227.488281 189.980469 L 227.738281 191.140625 L 227.988281 192.292969 L 228.238281 193.441406 L 228.492188 194.582031 L 228.742188 195.714844 L 228.992188 196.839844 L 229.242188 197.957031 L 229.492188 199.066406 L 229.742188 200.171875 L 229.996094 201.265625 L 230.246094 202.355469 L 230.496094 203.433594 L 230.746094 204.503906 L 230.996094 205.570312 L 231.246094 206.625 L 231.5 207.671875 L 231.75 208.710938 L 232 209.742188 L 232.25 210.761719 L 232.5 211.773438 L 232.753906 212.78125 L 233.003906 213.773438 L 233.253906 214.761719 L 233.503906 215.738281 L 233.753906 216.707031 L 234.003906 217.667969 L 234.257812 218.617188 L 234.507812 219.5625 L 234.757812 220.492188 L 235.007812 221.417969 L 235.257812 222.332031 L 235.507812 223.234375 L 235.761719 224.132812 L 236.011719 225.019531 L 236.261719 225.894531 L 236.511719 226.761719 L 236.761719 227.621094 L 237.011719 228.46875 L 237.265625 229.308594 L 237.515625 230.140625 L 237.765625 230.960938 L 238.015625 231.773438 L 238.265625 232.574219 L 238.515625 233.367188 L 238.769531 234.148438 L 239.019531 234.921875 L 239.269531 235.6875 L 239.519531 236.441406 L 239.769531 237.1875 L 240.019531 237.925781 L 240.273438 238.652344 L 240.523438 239.371094 L 240.773438 240.078125 L 241.023438 240.777344 L 241.273438 241.46875 L 241.523438 242.148438 L 241.777344 242.820312 L 242.027344 243.484375 L 242.277344 244.136719 L 242.527344 244.785156 L 242.777344 245.417969 L 243.03125 246.046875 L 243.28125 246.664062 L 243.53125 247.273438 L 243.78125 247.875 L 244.03125 248.464844 L 244.28125 249.050781 L 244.535156 249.625 L 244.785156 250.1875 L 245.035156 250.746094 L 245.285156 251.296875 L 245.535156 251.835938 L 245.785156 252.367188 L 246.039062 252.894531 L 246.289062 253.410156 L 246.539062 253.917969 L 246.789062 254.417969 L 247.039062 254.90625 L 247.289062 255.390625 L 247.542969 255.867188 L 247.792969 256.335938 L 248.042969 256.796875 L 248.292969 257.25 L 248.542969 257.695312 L 248.792969 258.132812 L 249.046875 258.5625 L 249.296875 258.984375 L 249.546875 259.402344 L 249.796875 259.808594 L 250.046875 260.210938 L 250.296875 260.605469 L 250.550781 260.992188 L 250.800781 261.375 L 251.050781 261.746094 L 251.300781 262.113281 L 251.550781 262.472656 L 251.800781 262.828125 L 252.054688 263.175781 L 252.304688 263.515625 L 252.554688 263.851562 L 252.804688 264.179688 L 253.054688 264.5 L 253.308594 264.816406 L 253.558594 265.128906 L 254.058594 265.730469 L 254.308594 266.023438 L 254.558594 266.308594 L 254.8125 266.589844 L 255.3125 267.136719 L 255.8125 267.660156 L 256.0625 267.914062 L 256.316406 268.160156 L 256.566406 268.40625 L 256.816406 268.644531 L 257.066406 268.878906 L 257.566406 269.332031 L 257.820312 269.550781 L 258.070312 269.765625 L 258.320312 269.976562 L 258.570312 270.183594 L 259.070312 270.582031 L 259.324219 270.773438 L 259.574219 270.960938 L 260.074219 271.328125 L 260.324219 271.503906 L 260.574219 271.675781 L 260.828125 271.84375 L 261.078125 272.007812 L 261.578125 272.328125 L 262.078125 272.632812 L 262.332031 272.777344 L 262.582031 272.921875 L 262.832031 273.0625 L 263.082031 273.199219 L 263.332031 273.332031 L 263.585938 273.460938 L 263.835938 273.589844 L 264.085938 273.714844 L 264.335938 273.835938 L 264.835938 274.070312 L 265.089844 274.183594 L 265.339844 274.292969 L 265.839844 274.503906 L 266.339844 274.707031 L 266.59375 274.804688 L 267.09375 274.992188 L 267.34375 275.082031 L 267.84375 275.253906 L 268.097656 275.335938 L 268.347656 275.417969 L 268.847656 275.574219 L 269.347656 275.722656 L 269.601562 275.792969 L 269.851562 275.863281 L 270.351562 275.996094 L 270.851562 276.121094 L 271.105469 276.183594 L 271.605469 276.300781 L 272.105469 276.410156 L 272.355469 276.460938 L 272.609375 276.511719 L 273.109375 276.613281 L 273.359375 276.660156 L 273.609375 276.703125 L 273.863281 276.75 L 274.363281 276.835938 L 275.113281 276.953125 L 275.367188 276.992188 L 276.117188 277.097656 L 276.367188 277.128906 L 276.617188 277.164062 L 276.871094 277.195312 L 277.121094 277.222656 L 277.371094 277.253906 L 277.621094 277.28125 L 277.871094 277.3125 L 278.121094 277.335938 L 278.375 277.363281 L 278.625 277.390625 L 279.625 277.484375 L 279.878906 277.503906 L 280.128906 277.527344 L 281.128906 277.605469 L 281.382812 277.621094 L 281.632812 277.640625 L 282.632812 277.703125 L 282.886719 277.71875 L 283.136719 277.734375 L 283.386719 277.746094 L 283.636719 277.761719 L 284.136719 277.785156 L 284.390625 277.800781 L 284.890625 277.824219 L 285.140625 277.832031 L 285.390625 277.84375 L 285.644531 277.855469 L 285.894531 277.863281 L 286.144531 277.875 L 286.394531 277.882812 L 286.644531 277.894531 L 286.894531 277.902344 L 287.148438 277.910156 L 288.398438 277.949219 L 288.652344 277.953125 L 289.152344 277.96875 L 289.402344 277.972656 L 289.652344 277.980469 L 289.902344 277.984375 L 290.15625 277.992188 L 290.65625 278 L 290.90625 278.007812 L 291.40625 278.015625 L 291.660156 278.019531 L 292.160156 278.027344 L 292.410156 278.035156 L 292.660156 278.035156 L 292.910156 278.039062 L 293.164062 278.042969 L 294.414062 278.0625 L 294.667969 278.0625 L 295.167969 278.070312 L 295.417969 278.070312 L 295.667969 278.074219 L 295.921875 278.078125 L 296.171875 278.078125 L 296.421875 278.082031 L 296.671875 278.082031 L 296.921875 278.085938 L 297.171875 278.085938 L 297.425781 278.089844 L 297.675781 278.089844 L 297.925781 278.09375 L 298.175781 278.09375 L 298.425781 278.097656 L 298.929688 278.097656 L 299.179688 278.101562 L 299.679688 278.101562 L 299.929688 278.105469 L 300.433594 278.105469 L 300.683594 278.109375 L 301.433594 278.109375 L 301.683594 278.113281 L 302.4375 278.113281 L 302.6875 278.117188 L 303.941406 278.117188 L 304.191406 278.121094 L 305.445312 278.121094 L 305.695312 278.125 L 307.953125 278.125 L 308.203125 278.128906 L 312.214844 278.128906 L 312.464844 278.132812 L 319.734375 278.132812 "/>
<path fill="none" stroke-width="0.75" stroke-linecap="round" stroke-linejoin="round" stroke="rgb(0%, 0%, 0%)" stroke-opacity="1" stroke-miterlimit="10" d="M 94.132812 286.558594 L 294.667969 286.558594 "/>
<path fill="none" stroke-width="0.75" stroke-linecap="round" stroke-linejoin="round" stroke="rgb(0%, 0%, 0%)" stroke-opacity="1" stroke-miterlimit="10" d="M 94.132812 286.558594 L 94.132812 293.761719 "/>
<path fill="none" stroke-width="0.75" stroke-linecap="round" stroke-linejoin="round" stroke="rgb(0%, 0%, 0%)" stroke-opacity="1" stroke-miterlimit="10" d="M 144.265625 286.558594 L 144.265625 293.761719 "/>
<path fill="none" stroke-width="0.75" stroke-linecap="round" stroke-linejoin="round" stroke="rgb(0%, 0%, 0%)" stroke-opacity="1" stroke-miterlimit="10" d="M 194.398438 286.558594 L 194.398438 293.761719 "/>
<path fill="none" stroke-width="0.75" stroke-linecap="round" stroke-linejoin="round" stroke="rgb(0%, 0%, 0%)" stroke-opacity="1" stroke-miterlimit="10" d="M 244.535156 286.558594 L 244.535156 293.761719 "/>
<path fill="none" stroke-width="0.75" stroke-linecap="round" stroke-linejoin="round" stroke="rgb(0%, 0%, 0%)" stroke-opacity="1" stroke-miterlimit="10" d="M 294.667969 286.558594 L 294.667969 293.761719 "/>
<g fill="rgb(0%, 0%, 0%)" fill-opacity="1">
<use xlink:href="#glyph-0-0" x="88.632812" y="312.228516"/>
<use xlink:href="#glyph-0-1" x="92.632812" y="312.228516"/>
</g>
<g fill="rgb(0%, 0%, 0%)" fill-opacity="1">
<use xlink:href="#glyph-0-0" x="138.765625" y="312.228516"/>
<use xlink:href="#glyph-0-2" x="142.765625" y="312.228516"/>
</g>
<g fill="rgb(0%, 0%, 0%)" fill-opacity="1">
<use xlink:href="#glyph-0-3" x="190.898438" y="312.228516"/>
</g>
<g fill="rgb(0%, 0%, 0%)" fill-opacity="1">
<use xlink:href="#glyph-0-2" x="241.035156" y="312.228516"/>
</g>
<g fill="rgb(0%, 0%, 0%)" fill-opacity="1">
<use xlink:href="#glyph-0-1" x="291.167969" y="312.228516"/>
</g>
<path fill="none" stroke-width="0.75" stroke-linecap="round" stroke-linejoin="round" stroke="rgb(0%, 0%, 0%)" stroke-opacity="1" stroke-miterlimit="10" d="M 59.039062 278.132812 L 59.039062 66.90625 "/>
<path fill="none" stroke-width="0.75" stroke-linecap="round" stroke-linejoin="round" stroke="rgb(0%, 0%, 0%)" stroke-opacity="1" stroke-miterlimit="10" d="M 59.039062 278.132812 L 51.839844 278.132812 "/>
<path fill="none" stroke-width="0.75" stroke-linecap="round" stroke-linejoin="round" stroke="rgb(0%, 0%, 0%)" stroke-opacity="1" stroke-miterlimit="10" d="M 59.039062 225.328125 L 51.839844 225.328125 "/>
<path fill="none" stroke-width="0.75" stroke-linecap="round" stroke-linejoin="round" stroke="rgb(0%, 0%, 0%)" stroke-opacity="1" stroke-miterlimit="10" d="M 59.039062 172.519531 L 51.839844 172.519531 "/>
<path fill="none" stroke-width="0.75" stroke-linecap="round" stroke-linejoin="round" stroke="rgb(0%, 0%, 0%)" stroke-opacity="1" stroke-miterlimit="10" d="M 59.039062 119.714844 L 51.839844 119.714844 "/>
<path fill="none" stroke-width="0.75" stroke-linecap="round" stroke-linejoin="round" stroke="rgb(0%, 0%, 0%)" stroke-opacity="1" stroke-miterlimit="10" d="M 59.039062 66.90625 L 51.839844 66.90625 "/>
<g fill="rgb(0%, 0%, 0%)" fill-opacity="1">
<use xlink:href="#glyph-1-0" x="41.509766" y="286.632812"/>
<use xlink:href="#glyph-1-1" x="41.509766" y="279.632812"/>
<use xlink:href="#glyph-1-0" x="41.509766" y="276.632812"/>
</g>
<g fill="rgb(0%, 0%, 0%)" fill-opacity="1">
<use xlink:href="#glyph-1-0" x="41.509766" y="233.828125"/>
<use xlink:href="#glyph-1-1" x="41.509766" y="226.828125"/>
<use xlink:href="#glyph-1-2" x="41.509766" y="223.828125"/>
</g>
<g fill="rgb(0%, 0%, 0%)" fill-opacity="1">
<use xlink:href="#glyph-1-0" x="41.509766" y="181.019531"/>
<use xlink:href="#glyph-1-1" x="41.509766" y="174.019531"/>
<use xlink:href="#glyph-1-3" x="41.509766" y="171.019531"/>
</g>
<g fill="rgb(0%, 0%, 0%)" fill-opacity="1">
<use xlink:href="#glyph-1-0" x="41.509766" y="128.214844"/>
<use xlink:href="#glyph-1-1" x="41.509766" y="121.214844"/>
<use xlink:href="#glyph-1-4" x="41.509766" y="118.214844"/>
</g>
<g fill="rgb(0%, 0%, 0%)" fill-opacity="1">
<use xlink:href="#glyph-1-0" x="41.509766" y="75.40625"/>
<use xlink:href="#glyph-1-1" x="41.509766" y="68.40625"/>
<use xlink:href="#glyph-1-5" x="41.509766" y="65.40625"/>
</g>
<path fill="none" stroke-width="0.75" stroke-linecap="round" stroke-linejoin="round" stroke="rgb(0%, 0%, 0%)" stroke-opacity="1" stroke-miterlimit="10" d="M 59.039062 286.558594 L 329.761719 286.558594 L 329.761719 59.039062 L 59.039062 59.039062 Z M 59.039062 286.558594 "/>
<g fill="rgb(0%, 0%, 0%)" fill-opacity="1">
<use xlink:href="#glyph-0-4" x="191.398438" y="341.029297"/>
</g>
<g fill="rgb(0%, 0%, 0%)" fill-opacity="1">
<use xlink:href="#glyph-1-6" x="12.708984" y="192.800781"/>
<use xlink:href="#glyph-1-7" x="12.708984" y="185.800781"/>
<use xlink:href="#glyph-1-8" x="12.708984" y="178.800781"/>
<use xlink:href="#glyph-1-9" x="12.708984" y="171.800781"/>
<use xlink:href="#glyph-1-10" x="12.708984" y="165.800781"/>
<use xlink:href="#glyph-1-11" x="12.708984" y="162.800781"/>
<use xlink:href="#glyph-1-12" x="12.708984" y="159.800781"/>
</g>
<path fill="none" stroke-width="2.25" stroke-linecap="round" stroke-linejoin="round" stroke="rgb(80%, 40%, 46.666667%)" stroke-opacity="1" stroke-miterlimit="10" d="M 69.066406 278.132812 L 126.46875 278.132812 L 126.71875 278.128906 L 130.730469 278.128906 L 130.980469 278.125 L 133.238281 278.125 L 133.488281 278.121094 L 134.742188 278.121094 L 134.992188 278.117188 L 136.246094 278.117188 L 136.496094 278.113281 L 137.246094 278.113281 L 137.5 278.109375 L 138.25 278.109375 L 138.5 278.105469 L 139.003906 278.105469 L 139.253906 278.101562 L 139.753906 278.101562 L 140.003906 278.097656 L 140.507812 278.097656 L 140.757812 278.09375 L 141.007812 278.09375 L 141.257812 278.089844 L 141.507812 278.089844 L 141.761719 278.085938 L 142.011719 278.085938 L 142.261719 278.082031 L 142.511719 278.082031 L 142.761719 278.078125 L 143.011719 278.078125 L 143.265625 278.074219 L 143.515625 278.070312 L 143.765625 278.070312 L 144.265625 278.0625 L 144.515625 278.0625 L 144.769531 278.058594 L 146.019531 278.039062 L 146.273438 278.035156 L 146.523438 278.035156 L 146.773438 278.027344 L 147.523438 278.015625 L 147.777344 278.011719 L 148.027344 278.007812 L 148.277344 278 L 148.777344 277.992188 L 149.03125 277.984375 L 149.28125 277.980469 L 149.53125 277.972656 L 149.78125 277.96875 L 150.28125 277.953125 L 150.535156 277.949219 L 151.785156 277.910156 L 152.039062 277.902344 L 152.289062 277.894531 L 152.539062 277.882812 L 152.789062 277.875 L 153.039062 277.863281 L 153.289062 277.855469 L 153.542969 277.84375 L 153.792969 277.832031 L 154.042969 277.824219 L 154.542969 277.800781 L 154.792969 277.785156 L 155.046875 277.773438 L 155.296875 277.761719 L 155.546875 277.746094 L 155.796875 277.734375 L 156.296875 277.703125 L 156.550781 277.6875 L 157.300781 277.640625 L 157.550781 277.621094 L 157.800781 277.605469 L 158.054688 277.585938 L 158.804688 277.527344 L 159.054688 277.503906 L 159.308594 277.484375 L 160.308594 277.390625 L 160.558594 277.363281 L 160.8125 277.335938 L 161.0625 277.3125 L 161.3125 277.28125 L 161.5625 277.253906 L 161.8125 277.222656 L 162.0625 277.195312 L 162.316406 277.164062 L 162.566406 277.128906 L 162.816406 277.097656 L 163.566406 276.992188 L 163.820312 276.953125 L 164.570312 276.835938 L 165.070312 276.75 L 165.324219 276.703125 L 165.574219 276.660156 L 165.824219 276.613281 L 166.574219 276.460938 L 166.828125 276.410156 L 167.328125 276.300781 L 167.828125 276.183594 L 168.078125 276.121094 L 168.332031 276.058594 L 168.582031 275.996094 L 169.082031 275.863281 L 169.332031 275.792969 L 169.585938 275.722656 L 170.085938 275.574219 L 170.585938 275.417969 L 170.835938 275.335938 L 171.089844 275.253906 L 171.589844 275.082031 L 171.839844 274.992188 L 172.339844 274.804688 L 172.59375 274.707031 L 173.09375 274.503906 L 173.59375 274.292969 L 173.84375 274.183594 L 174.097656 274.070312 L 174.597656 273.835938 L 174.847656 273.714844 L 175.097656 273.589844 L 175.347656 273.460938 L 175.601562 273.332031 L 175.851562 273.199219 L 176.101562 273.0625 L 176.351562 272.921875 L 176.851562 272.632812 L 177.105469 272.480469 L 177.355469 272.328125 L 177.855469 272.007812 L 178.105469 271.84375 L 178.355469 271.675781 L 178.609375 271.503906 L 178.859375 271.328125 L 179.359375 270.960938 L 179.609375 270.773438 L 179.863281 270.582031 L 180.363281 270.183594 L 180.613281 269.976562 L 180.863281 269.765625 L 181.113281 269.550781 L 181.367188 269.332031 L 181.867188 268.878906 L 182.117188 268.644531 L 182.367188 268.40625 L 182.617188 268.160156 L 182.871094 267.914062 L 183.121094 267.660156 L 183.621094 267.136719 L 184.121094 266.589844 L 184.375 266.308594 L 184.625 266.023438 L 184.875 265.730469 L 185.375 265.128906 L 185.625 264.816406 L 185.878906 264.5 L 186.128906 264.179688 L 186.378906 263.851562 L 186.628906 263.515625 L 186.878906 263.175781 L 187.128906 262.828125 L 187.382812 262.472656 L 187.632812 262.113281 L 187.882812 261.746094 L 188.132812 261.375 L 188.382812 260.992188 L 188.632812 260.605469 L 188.886719 260.210938 L 189.136719 259.808594 L 189.386719 259.402344 L 189.636719 258.984375 L 189.886719 258.5625 L 190.136719 258.132812 L 190.390625 257.695312 L 190.640625 257.25 L 190.890625 256.796875 L 191.140625 256.335938 L 191.390625 255.867188 L 191.644531 255.390625 L 191.894531 254.90625 L 192.144531 254.417969 L 192.394531 253.917969 L 192.644531 253.410156 L 192.894531 252.894531 L 193.148438 252.367188 L 193.398438 251.835938 L 193.648438 251.296875 L 193.898438 250.746094 L 194.148438 250.1875 L 194.398438 249.625 L 194.652344 249.050781 L 194.902344 248.464844 L 195.152344 247.875 L 195.402344 247.273438 L 195.652344 246.664062 L 195.902344 246.046875 L 196.15625 245.417969 L 196.40625 244.785156 L 196.65625 244.136719 L 196.90625 243.484375 L 197.15625 242.820312 L 197.40625 242.148438 L 197.660156 241.46875 L 197.910156 240.777344 L 198.160156 240.078125 L 198.410156 239.371094 L 198.660156 238.652344 L 198.910156 237.925781 L 199.164062 237.1875 L 199.414062 236.441406 L 199.664062 235.6875 L 199.914062 234.921875 L 200.164062 234.148438 L 200.414062 233.367188 L 200.667969 232.574219 L 200.917969 231.773438 L 201.167969 230.960938 L 201.417969 230.140625 L 201.667969 229.308594 L 201.921875 228.46875 L 202.171875 227.621094 L 202.421875 226.761719 L 202.671875 225.894531 L 202.921875 225.019531 L 203.171875 224.132812 L 203.425781 223.234375 L 203.675781 222.332031 L 203.925781 221.417969 L 204.175781 220.492188 L 204.425781 219.5625 L 204.675781 218.617188 L 204.929688 217.667969 L 205.179688 216.707031 L 205.429688 215.738281 L 205.679688 214.761719 L 205.929688 213.773438 L 206.179688 212.78125 L 206.433594 211.773438 L 206.683594 210.761719 L 206.933594 209.742188 L 207.183594 208.710938 L 207.433594 207.671875 L 207.683594 206.625 L 207.9375 205.570312 L 208.1875 204.503906 L 208.4375 203.433594 L 208.6875 202.355469 L 208.9375 201.265625 L 209.1875 200.171875 L 209.441406 199.066406 L 209.691406 197.957031 L 209.941406 196.839844 L 210.191406 195.714844 L 210.441406 194.582031 L 210.691406 193.441406 L 210.945312 192.292969 L 211.195312 191.140625 L 211.445312 189.980469 L 211.695312 188.8125 L 211.945312 187.640625 L 212.199219 186.460938 L 212.449219 185.273438 L 212.699219 184.082031 L 212.949219 182.886719 L 213.199219 181.683594 L 213.449219 180.476562 L 213.703125 179.261719 L 213.953125 178.042969 L 214.203125 176.820312 L 214.703125 174.359375 L 214.953125 173.121094 L 215.207031 171.878906 L 215.457031 170.636719 L 215.707031 169.386719 L 216.207031 166.878906 L 216.457031 165.621094 L 216.710938 164.359375 L 217.210938 161.828125 L 217.710938 159.289062 L 217.960938 158.015625 L 218.214844 156.742188 L 218.464844 155.464844 L 218.714844 154.191406 L 219.464844 150.359375 L 219.71875 149.082031 L 219.96875 147.800781 L 220.21875 146.527344 L 220.71875 143.972656 L 220.96875 142.699219 L 221.222656 141.429688 L 221.472656 140.15625 L 222.222656 136.359375 L 222.476562 135.101562 L 222.726562 133.84375 L 222.976562 132.589844 L 223.226562 131.339844 L 223.476562 130.09375 L 223.726562 128.851562 L 223.980469 127.617188 L 224.230469 126.382812 L 224.480469 125.15625 L 224.730469 123.9375 L 224.980469 122.722656 L 225.230469 121.511719 L 225.484375 120.308594 L 225.734375 119.113281 L 225.984375 117.925781 L 226.234375 116.742188 L 226.484375 115.570312 L 226.734375 114.402344 L 226.988281 113.242188 L 227.238281 112.09375 L 227.488281 110.953125 L 227.738281 109.820312 L 227.988281 108.695312 L 228.238281 107.582031 L 228.492188 106.480469 L 228.742188 105.386719 L 228.992188 104.304688 L 229.242188 103.230469 L 229.492188 102.167969 L 229.742188 101.121094 L 229.996094 100.082031 L 230.246094 99.054688 L 230.496094 98.039062 L 230.746094 97.039062 L 230.996094 96.046875 L 231.246094 95.070312 L 231.5 94.109375 L 231.75 93.15625 L 232 92.222656 L 232.25 91.296875 L 232.5 90.390625 L 232.753906 89.496094 L 233.003906 88.617188 L 233.253906 87.753906 L 233.503906 86.902344 L 233.753906 86.070312 L 234.003906 85.25 L 234.257812 84.449219 L 234.507812 83.664062 L 234.757812 82.894531 L 235.007812 82.140625 L 235.257812 81.40625 L 235.507812 80.683594 L 235.761719 79.984375 L 236.011719 79.296875 L 236.261719 78.628906 L 236.511719 77.980469 L 236.761719 77.351562 L 237.011719 76.738281 L 237.265625 76.140625 L 237.515625 75.566406 L 237.765625 75.007812 L 238.015625 74.46875 L 238.265625 73.949219 L 238.515625 73.449219 L 238.769531 72.964844 L 239.019531 72.503906 L 239.269531 72.0625 L 239.519531 71.636719 L 239.769531 71.234375 L 240.019531 70.851562 L 240.273438 70.488281 L 240.523438 70.144531 L 240.773438 69.824219 L 241.023438 69.519531 L 241.273438 69.238281 L 241.523438 68.976562 L 241.777344 68.738281 L 242.027344 68.515625 L 242.277344 68.316406 L 242.527344 68.140625 L 242.777344 67.980469 L 243.03125 67.84375 L 243.28125 67.730469 L 243.53125 67.636719 L 243.78125 67.5625 L 244.03125 67.507812 L 244.28125 67.476562 L 244.535156 67.464844 L 244.785156 67.476562 L 245.035156 67.507812 L 245.285156 67.5625 L 245.535156 67.636719 L 245.785156 67.730469 L 246.039062 67.84375 L 246.289062 67.980469 L 246.539062 68.140625 L 246.789062 68.316406 L 247.039062 68.515625 L 247.289062 68.738281 L 247.542969 68.976562 L 247.792969 69.238281 L 248.042969 69.519531 L 248.292969 69.824219 L 248.542969 70.144531 L 248.792969 70.488281 L 249.046875 70.851562 L 249.296875 71.234375 L 249.546875 71.636719 L 249.796875 72.0625 L 250.046875 72.503906 L 250.296875 72.964844 L 250.550781 73.449219 L 250.800781 73.949219 L 251.050781 74.46875 L 251.300781 75.007812 L 251.550781 75.566406 L 251.800781 76.140625 L 252.054688 76.738281 L 252.304688 77.351562 L 252.554688 77.980469 L 252.804688 78.628906 L 253.054688 79.296875 L 253.308594 79.984375 L 253.558594 80.683594 L 253.808594 81.40625 L 254.058594 82.140625 L 254.308594 82.894531 L 254.558594 83.664062 L 254.8125 84.449219 L 255.0625 85.25 L 255.3125 86.070312 L 255.5625 86.902344 L 255.8125 87.753906 L 256.0625 88.617188 L 256.316406 89.496094 L 256.566406 90.390625 L 256.816406 91.296875 L 257.066406 92.222656 L 257.316406 93.15625 L 257.566406 94.109375 L 257.820312 95.070312 L 258.070312 96.046875 L 258.320312 97.039062 L 258.570312 98.039062 L 258.820312 99.054688 L 259.070312 100.082031 L 259.324219 101.121094 L 259.574219 102.167969 L 259.824219 103.230469 L 260.074219 104.304688 L 260.324219 105.386719 L 260.574219 106.480469 L 260.828125 107.582031 L 261.078125 108.695312 L 261.328125 109.820312 L 261.578125 110.953125 L 261.828125 112.09375 L 262.078125 113.242188 L 262.332031 114.402344 L 262.582031 115.570312 L 262.832031 116.742188 L 263.082031 117.925781 L 263.332031 119.113281 L 263.585938 120.308594 L 263.835938 121.511719 L 264.085938 122.722656 L 264.335938 123.9375 L 264.585938 125.15625 L 264.835938 126.382812 L 265.089844 127.617188 L 265.339844 128.851562 L 265.589844 130.09375 L 265.839844 131.339844 L 266.089844 132.589844 L 266.339844 133.84375 L 266.59375 135.101562 L 266.84375 136.359375 L 267.59375 140.15625 L 267.84375 141.429688 L 268.097656 142.699219 L 268.347656 143.972656 L 268.847656 146.527344 L 269.097656 147.800781 L 269.347656 149.082031 L 269.601562 150.359375 L 270.351562 154.191406 L 270.601562 155.464844 L 270.851562 156.742188 L 271.105469 158.015625 L 271.355469 159.289062 L 271.855469 161.828125 L 272.355469 164.359375 L 272.609375 165.621094 L 272.859375 166.878906 L 273.359375 169.386719 L 273.609375 170.636719 L 273.863281 171.878906 L 274.113281 173.121094 L 274.363281 174.359375 L 274.863281 176.820312 L 275.113281 178.042969 L 275.367188 179.261719 L 275.617188 180.476562 L 275.867188 181.683594 L 276.117188 182.886719 L 276.367188 184.082031 L 276.617188 185.273438 L 276.871094 186.460938 L 277.121094 187.640625 L 277.371094 188.8125 L 277.621094 189.980469 L 277.871094 191.140625 L 278.121094 192.292969 L 278.375 193.441406 L 278.625 194.582031 L 278.875 195.714844 L 279.125 196.839844 L 279.375 197.957031 L 279.625 199.066406 L 279.878906 200.171875 L 280.128906 201.265625 L 280.378906 202.355469 L 280.628906 203.433594 L 280.878906 204.503906 L 281.128906 205.570312 L 281.382812 206.625 L 281.632812 207.671875 L 281.882812 208.710938 L 282.132812 209.742188 L 282.382812 210.761719 L 282.632812 211.773438 L 282.886719 212.78125 L 283.136719 213.773438 L 283.386719 214.761719 L 283.636719 215.738281 L 283.886719 216.707031 L 284.136719 217.667969 L 284.390625 218.617188 L 284.640625 219.5625 L 284.890625 220.492188 L 285.140625 221.417969 L 285.390625 222.332031 L 285.644531 223.234375 L 285.894531 224.132812 L 286.144531 225.019531 L 286.394531 225.894531 L 286.644531 226.761719 L 286.894531 227.621094 L 287.148438 228.46875 L 287.398438 229.308594 L 287.648438 230.140625 L 287.898438 230.960938 L 288.148438 231.773438 L 288.398438 232.574219 L 288.652344 233.367188 L 288.902344 234.148438 L 289.152344 234.921875 L 289.402344 235.6875 L 289.652344 236.441406 L 289.902344 237.1875 L 290.15625 237.925781 L 290.40625 238.652344 L 290.65625 239.371094 L 290.90625 240.078125 L 291.15625 240.777344 L 291.40625 241.46875 L 291.660156 242.148438 L 291.910156 242.820312 L 292.160156 243.484375 L 292.410156 244.136719 L 292.660156 244.785156 L 292.910156 245.417969 L 293.164062 246.046875 L 293.414062 246.664062 L 293.664062 247.273438 L 293.914062 247.875 L 294.164062 248.464844 L 294.414062 249.050781 L 294.667969 249.625 L 294.917969 250.1875 L 295.167969 250.746094 L 295.417969 251.296875 L 295.667969 251.835938 L 295.921875 252.367188 L 296.171875 252.894531 L 296.421875 253.410156 L 296.671875 253.917969 L 296.921875 254.417969 L 297.171875 254.90625 L 297.425781 255.390625 L 297.675781 255.867188 L 297.925781 256.335938 L 298.175781 256.796875 L 298.425781 257.25 L 298.675781 257.695312 L 298.929688 258.132812 L 299.179688 258.5625 L 299.429688 258.984375 L 299.679688 259.402344 L 299.929688 259.808594 L 300.179688 260.210938 L 300.433594 260.605469 L 300.683594 260.992188 L 300.933594 261.375 L 301.183594 261.746094 L 301.433594 262.113281 L 301.683594 262.472656 L 301.9375 262.828125 L 302.1875 263.175781 L 302.4375 263.515625 L 302.6875 263.851562 L 302.9375 264.179688 L 303.1875 264.5 L 303.441406 264.816406 L 303.691406 265.128906 L 304.191406 265.730469 L 304.441406 266.023438 L 304.691406 266.308594 L 304.945312 266.589844 L 305.445312 267.136719 L 305.945312 267.660156 L 306.199219 267.914062 L 306.699219 268.40625 L 306.949219 268.644531 L 307.199219 268.878906 L 307.449219 269.105469 L 307.703125 269.332031 L 307.953125 269.550781 L 308.203125 269.765625 L 308.453125 269.976562 L 308.703125 270.183594 L 308.953125 270.382812 L 309.207031 270.582031 L 309.457031 270.773438 L 309.707031 270.960938 L 310.207031 271.328125 L 310.457031 271.503906 L 310.710938 271.675781 L 310.960938 271.84375 L 311.210938 272.007812 L 311.710938 272.328125 L 311.960938 272.480469 L 312.214844 272.632812 L 312.714844 272.921875 L 312.964844 273.0625 L 313.214844 273.199219 L 313.464844 273.332031 L 313.71875 273.460938 L 313.96875 273.589844 L 314.21875 273.714844 L 314.46875 273.835938 L 314.96875 274.070312 L 315.222656 274.183594 L 315.472656 274.292969 L 315.972656 274.503906 L 316.222656 274.605469 L 316.476562 274.707031 L 316.726562 274.804688 L 317.226562 274.992188 L 317.476562 275.082031 L 317.726562 275.167969 L 317.980469 275.253906 L 318.480469 275.417969 L 318.980469 275.574219 L 319.230469 275.648438 L 319.484375 275.722656 L 319.734375 275.792969 "/>
<path fill="none" stroke-width="2.25" stroke-linecap="round" stroke-linejoin="round" stroke="rgb(86.666667%, 80%, 46.666667%)" stroke-opacity="1" stroke-miterlimit="10" d="M 69.066406 275.792969 L 69.316406 275.722656 L 69.566406 275.648438 L 69.820312 275.574219 L 70.320312 275.417969 L 70.820312 275.253906 L 71.070312 275.167969 L 71.324219 275.082031 L 71.574219 274.992188 L 72.074219 274.804688 L 72.324219 274.707031 L 72.574219 274.605469 L 72.828125 274.503906 L 73.328125 274.292969 L 73.578125 274.183594 L 73.828125 274.070312 L 74.078125 273.953125 L 74.332031 273.835938 L 74.582031 273.714844 L 74.832031 273.589844 L 75.332031 273.332031 L 75.585938 273.199219 L 75.835938 273.0625 L 76.085938 272.921875 L 76.585938 272.632812 L 76.835938 272.480469 L 77.089844 272.328125 L 77.589844 272.007812 L 77.839844 271.84375 L 78.089844 271.675781 L 78.339844 271.503906 L 78.59375 271.328125 L 79.09375 270.960938 L 79.34375 270.773438 L 79.59375 270.582031 L 79.84375 270.382812 L 80.097656 270.183594 L 80.347656 269.976562 L 80.597656 269.765625 L 80.847656 269.550781 L 81.097656 269.332031 L 81.347656 269.105469 L 81.601562 268.878906 L 81.851562 268.644531 L 82.101562 268.40625 L 82.601562 267.914062 L 82.851562 267.660156 L 83.105469 267.398438 L 83.355469 267.136719 L 83.855469 266.589844 L 84.105469 266.308594 L 84.355469 266.023438 L 84.609375 265.730469 L 85.109375 265.128906 L 85.359375 264.816406 L 85.609375 264.5 L 85.863281 264.179688 L 86.113281 263.851562 L 86.363281 263.515625 L 86.613281 263.175781 L 86.863281 262.828125 L 87.113281 262.472656 L 87.367188 262.113281 L 87.617188 261.746094 L 87.867188 261.375 L 88.117188 260.992188 L 88.367188 260.605469 L 88.617188 260.210938 L 88.871094 259.808594 L 89.121094 259.402344 L 89.371094 258.984375 L 89.621094 258.5625 L 89.871094 258.132812 L 90.121094 257.695312 L 90.375 257.25 L 90.625 256.796875 L 90.875 256.335938 L 91.125 255.867188 L 91.375 255.390625 L 91.625 254.90625 L 91.878906 254.417969 L 92.128906 253.917969 L 92.378906 253.410156 L 92.628906 252.894531 L 92.878906 252.367188 L 93.128906 251.835938 L 93.382812 251.296875 L 93.632812 250.746094 L 93.882812 250.1875 L 94.132812 249.625 L 94.382812 249.050781 L 94.632812 248.464844 L 94.886719 247.875 L 95.136719 247.273438 L 95.386719 246.664062 L 95.636719 246.046875 L 95.886719 245.417969 L 96.136719 244.785156 L 96.390625 244.136719 L 96.640625 243.484375 L 96.890625 242.820312 L 97.140625 242.148438 L 97.390625 241.46875 L 97.644531 240.777344 L 97.894531 240.078125 L 98.144531 239.371094 L 98.394531 238.652344 L 98.644531 237.925781 L 98.894531 237.1875 L 99.148438 236.441406 L 99.398438 235.6875 L 99.648438 234.921875 L 99.898438 234.148438 L 100.148438 233.367188 L 100.398438 232.574219 L 100.652344 231.773438 L 100.902344 230.960938 L 101.152344 230.140625 L 101.402344 229.308594 L 101.652344 228.46875 L 101.902344 227.621094 L 102.15625 226.761719 L 102.40625 225.894531 L 102.65625 225.019531 L 102.90625 224.132812 L 103.15625 223.234375 L 103.40625 222.332031 L 103.660156 221.417969 L 103.910156 220.492188 L 104.160156 219.5625 L 104.410156 218.617188 L 104.660156 217.667969 L 104.910156 216.707031 L 105.164062 215.738281 L 105.414062 214.761719 L 105.664062 213.773438 L 105.914062 212.78125 L 106.164062 211.773438 L 106.414062 210.761719 L 106.667969 209.742188 L 106.917969 208.710938 L 107.167969 207.671875 L 107.417969 206.625 L 107.667969 205.570312 L 107.921875 204.503906 L 108.171875 203.433594 L 108.421875 202.355469 L 108.671875 201.265625 L 108.921875 200.171875 L 109.171875 199.066406 L 109.425781 197.957031 L 109.675781 196.839844 L 109.925781 195.714844 L 110.175781 194.582031 L 110.425781 193.441406 L 110.675781 192.292969 L 110.929688 191.140625 L 111.179688 189.980469 L 111.429688 188.8125 L 111.679688 187.640625 L 111.929688 186.460938 L 112.179688 185.273438 L 112.433594 184.082031 L 112.683594 182.886719 L 112.933594 181.683594 L 113.183594 180.476562 L 113.433594 179.261719 L 113.683594 178.042969 L 113.9375 176.820312 L 114.4375 174.359375 L 114.6875 173.121094 L 115.1875 170.636719 L 115.441406 169.386719 L 115.941406 166.878906 L 116.191406 165.621094 L 116.441406 164.359375 L 116.691406 163.09375 L 116.945312 161.828125 L 117.445312 159.289062 L 117.945312 156.742188 L 118.199219 155.464844 L 118.449219 154.191406 L 119.449219 149.082031 L 119.703125 147.800781 L 119.953125 146.527344 L 120.453125 143.972656 L 120.703125 142.699219 L 120.953125 141.429688 L 121.207031 140.15625 L 121.957031 136.359375 L 122.457031 133.84375 L 122.710938 132.589844 L 122.960938 131.339844 L 123.210938 130.09375 L 123.460938 128.851562 L 123.960938 126.382812 L 124.214844 125.15625 L 124.464844 123.9375 L 124.714844 122.722656 L 124.964844 121.511719 L 125.214844 120.308594 L 125.464844 119.113281 L 125.71875 117.925781 L 125.96875 116.742188 L 126.21875 115.570312 L 126.46875 114.402344 L 126.71875 113.242188 L 126.96875 112.09375 L 127.222656 110.953125 L 127.472656 109.820312 L 127.722656 108.695312 L 127.972656 107.582031 L 128.222656 106.480469 L 128.476562 105.386719 L 128.726562 104.304688 L 128.976562 103.230469 L 129.226562 102.167969 L 129.476562 101.121094 L 129.726562 100.082031 L 129.980469 99.054688 L 130.230469 98.039062 L 130.480469 97.039062 L 130.730469 96.046875 L 130.980469 95.070312 L 131.230469 94.109375 L 131.484375 93.15625 L 131.734375 92.222656 L 131.984375 91.296875 L 132.234375 90.390625 L 132.484375 89.496094 L 132.734375 88.617188 L 132.988281 87.753906 L 133.238281 86.902344 L 133.488281 86.070312 L 133.738281 85.25 L 133.988281 84.449219 L 134.238281 83.664062 L 134.492188 82.894531 L 134.742188 82.140625 L 134.992188 81.40625 L 135.242188 80.683594 L 135.492188 79.984375 L 135.742188 79.296875 L 135.996094 78.628906 L 136.246094 77.980469 L 136.496094 77.351562 L 136.746094 76.738281 L 136.996094 76.140625 L 137.246094 75.566406 L 137.5 75.007812 L 137.75 74.46875 L 138 73.949219 L 138.25 73.449219 L 138.5 72.964844 L 138.753906 72.503906 L 139.003906 72.0625 L 139.253906 71.636719 L 139.503906 71.234375 L 139.753906 70.851562 L 140.003906 70.488281 L 140.257812 70.144531 L 140.507812 69.824219 L 140.757812 69.519531 L 141.007812 69.238281 L 141.257812 68.976562 L 141.507812 68.738281 L 141.761719 68.515625 L 142.011719 68.316406 L 142.261719 68.140625 L 142.511719 67.980469 L 142.761719 67.84375 L 143.011719 67.730469 L 143.265625 67.636719 L 143.515625 67.5625 L 143.765625 67.507812 L 144.015625 67.476562 L 144.265625 67.464844 L 144.515625 67.476562 L 144.769531 67.507812 L 145.019531 67.5625 L 145.269531 67.636719 L 145.519531 67.730469 L 145.769531 67.84375 L 146.019531 67.980469 L 146.273438 68.140625 L 146.523438 68.316406 L 146.773438 68.515625 L 147.023438 68.738281 L 147.273438 68.976562 L 147.523438 69.238281 L 147.777344 69.519531 L 148.027344 69.824219 L 148.277344 70.144531 L 148.527344 70.488281 L 148.777344 70.851562 L 149.03125 71.234375 L 149.28125 71.636719 L 149.53125 72.0625 L 149.78125 72.503906 L 150.03125 72.964844 L 150.28125 73.449219 L 150.535156 73.949219 L 150.785156 74.46875 L 151.035156 75.007812 L 151.285156 75.566406 L 151.535156 76.140625 L 151.785156 76.738281 L 152.039062 77.351562 L 152.289062 77.980469 L 152.539062 78.628906 L 152.789062 79.296875 L 153.039062 79.984375 L 153.289062 80.683594 L 153.542969 81.40625 L 153.792969 82.140625 L 154.042969 82.894531 L 154.292969 83.664062 L 154.542969 84.449219 L 154.792969 85.25 L 155.046875 86.070312 L 155.296875 86.902344 L 155.546875 87.753906 L 155.796875 88.617188 L 156.046875 89.496094 L 156.296875 90.390625 L 156.550781 91.296875 L 156.800781 92.222656 L 157.050781 93.15625 L 157.300781 94.109375 L 157.550781 95.070312 L 157.800781 96.046875 L 158.054688 97.039062 L 158.304688 98.039062 L 158.554688 99.054688 L 158.804688 100.082031 L 159.054688 101.121094 L 159.308594 102.167969 L 159.558594 103.230469 L 159.808594 104.304688 L 160.058594 105.386719 L 160.308594 106.480469 L 160.558594 107.582031 L 160.8125 108.695312 L 161.0625 109.820312 L 161.3125 110.953125 L 161.5625 112.09375 L 161.8125 113.242188 L 162.0625 114.402344 L 162.316406 115.570312 L 162.566406 116.742188 L 162.816406 117.925781 L 163.066406 119.113281 L 163.316406 120.308594 L 163.566406 121.511719 L 163.820312 122.722656 L 164.070312 123.9375 L 164.320312 125.15625 L 164.570312 126.382812 L 165.070312 128.851562 L 165.324219 130.09375 L 165.574219 131.339844 L 165.824219 132.589844 L 166.074219 133.84375 L 166.574219 136.359375 L 166.828125 137.625 L 167.328125 140.15625 L 167.578125 141.429688 L 167.828125 142.699219 L 168.078125 143.972656 L 168.332031 145.25 L 168.582031 146.527344 L 168.832031 147.800781 L 169.082031 149.082031 L 169.332031 150.359375 L 169.585938 151.636719 L 170.085938 154.191406 L 170.335938 155.464844 L 170.585938 156.742188 L 170.835938 158.015625 L 171.089844 159.289062 L 171.589844 161.828125 L 172.089844 164.359375 L 172.339844 165.621094 L 172.59375 166.878906 L 173.09375 169.386719 L 173.34375 170.636719 L 173.84375 173.121094 L 174.097656 174.359375 L 174.597656 176.820312 L 174.847656 178.042969 L 175.097656 179.261719 L 175.347656 180.476562 L 175.601562 181.683594 L 175.851562 182.886719 L 176.101562 184.082031 L 176.351562 185.273438 L 176.601562 186.460938 L 176.851562 187.640625 L 177.105469 188.8125 L 177.355469 189.980469 L 177.605469 191.140625 L 177.855469 192.292969 L 178.105469 193.441406 L 178.355469 194.582031 L 178.609375 195.714844 L 178.859375 196.839844 L 179.109375 197.957031 L 179.359375 199.066406 L 179.609375 200.171875 L 179.863281 201.265625 L 180.113281 202.355469 L 180.363281 203.433594 L 180.613281 204.503906 L 180.863281 205.570312 L 181.113281 206.625 L 181.367188 207.671875 L 181.617188 208.710938 L 181.867188 209.742188 L 182.117188 210.761719 L 182.367188 211.773438 L 182.617188 212.78125 L 182.871094 213.773438 L 183.121094 214.761719 L 183.371094 215.738281 L 183.621094 216.707031 L 183.871094 217.667969 L 184.121094 218.617188 L 184.375 219.5625 L 184.625 220.492188 L 184.875 221.417969 L 185.125 222.332031 L 185.375 223.234375 L 185.625 224.132812 L 185.878906 225.019531 L 186.128906 225.894531 L 186.378906 226.761719 L 186.628906 227.621094 L 186.878906 228.46875 L 187.128906 229.308594 L 187.382812 230.140625 L 187.632812 230.960938 L 187.882812 231.773438 L 188.132812 232.574219 L 188.382812 233.367188 L 188.632812 234.148438 L 188.886719 234.921875 L 189.136719 235.6875 L 189.386719 236.441406 L 189.636719 237.1875 L 189.886719 237.925781 L 190.136719 238.652344 L 190.390625 239.371094 L 190.640625 240.078125 L 190.890625 240.777344 L 191.140625 241.46875 L 191.390625 242.148438 L 191.644531 242.820312 L 191.894531 243.484375 L 192.144531 244.136719 L 192.394531 244.785156 L 192.644531 245.417969 L 192.894531 246.046875 L 193.148438 246.664062 L 193.398438 247.273438 L 193.648438 247.875 L 193.898438 248.464844 L 194.148438 249.050781 L 194.398438 249.625 L 194.652344 250.1875 L 194.902344 250.746094 L 195.152344 251.296875 L 195.402344 251.835938 L 195.652344 252.367188 L 195.902344 252.894531 L 196.15625 253.410156 L 196.40625 253.917969 L 196.65625 254.417969 L 196.90625 254.90625 L 197.15625 255.390625 L 197.40625 255.867188 L 197.660156 256.335938 L 197.910156 256.796875 L 198.160156 257.25 L 198.410156 257.695312 L 198.660156 258.132812 L 198.910156 258.5625 L 199.164062 258.984375 L 199.414062 259.402344 L 199.664062 259.808594 L 199.914062 260.210938 L 200.164062 260.605469 L 200.414062 260.992188 L 200.667969 261.375 L 200.917969 261.746094 L 201.167969 262.113281 L 201.417969 262.472656 L 201.667969 262.828125 L 201.921875 263.175781 L 202.171875 263.515625 L 202.421875 263.851562 L 202.671875 264.179688 L 202.921875 264.5 L 203.171875 264.816406 L 203.425781 265.128906 L 203.925781 265.730469 L 204.175781 266.023438 L 204.425781 266.308594 L 204.675781 266.589844 L 204.929688 266.863281 L 205.179688 267.136719 L 205.679688 267.660156 L 205.929688 267.914062 L 206.179688 268.160156 L 206.433594 268.40625 L 206.683594 268.644531 L 206.933594 268.878906 L 207.433594 269.332031 L 207.683594 269.550781 L 207.9375 269.765625 L 208.1875 269.976562 L 208.4375 270.183594 L 208.9375 270.582031 L 209.1875 270.773438 L 209.441406 270.960938 L 209.941406 271.328125 L 210.191406 271.503906 L 210.441406 271.675781 L 210.691406 271.84375 L 210.945312 272.007812 L 211.445312 272.328125 L 211.945312 272.632812 L 212.199219 272.777344 L 212.449219 272.921875 L 212.699219 273.0625 L 212.949219 273.199219 L 213.199219 273.332031 L 213.449219 273.460938 L 213.703125 273.589844 L 213.953125 273.714844 L 214.203125 273.835938 L 214.703125 274.070312 L 214.953125 274.183594 L 215.207031 274.292969 L 215.707031 274.503906 L 216.207031 274.707031 L 216.457031 274.804688 L 216.710938 274.898438 L 216.960938 274.992188 L 217.210938 275.082031 L 217.710938 275.253906 L 217.960938 275.335938 L 218.214844 275.417969 L 218.714844 275.574219 L 219.214844 275.722656 L 219.464844 275.792969 L 219.71875 275.863281 L 220.21875 275.996094 L 220.96875 276.183594 L 221.222656 276.242188 L 221.472656 276.300781 L 221.972656 276.410156 L 222.222656 276.460938 L 222.476562 276.511719 L 222.976562 276.613281 L 223.226562 276.660156 L 223.476562 276.703125 L 223.726562 276.75 L 223.980469 276.792969 L 224.230469 276.835938 L 225.230469 276.992188 L 225.484375 277.027344 L 225.984375 277.097656 L 226.234375 277.128906 L 226.484375 277.164062 L 226.734375 277.195312 L 226.988281 277.222656 L 227.238281 277.253906 L 227.488281 277.28125 L 227.738281 277.3125 L 227.988281 277.335938 L 228.238281 277.363281 L 228.492188 277.390625 L 229.492188 277.484375 L 229.742188 277.503906 L 229.996094 277.527344 L 230.996094 277.605469 L 231.246094 277.621094 L 231.5 277.640625 L 232.5 277.703125 L 232.753906 277.71875 L 233.003906 277.734375 L 233.253906 277.746094 L 233.503906 277.761719 L 234.003906 277.785156 L 234.257812 277.800781 L 234.757812 277.824219 L 235.007812 277.832031 L 235.507812 277.855469 L 235.761719 277.863281 L 236.011719 277.875 L 236.261719 277.882812 L 236.511719 277.894531 L 237.011719 277.910156 L 237.265625 277.917969 L 238.265625 277.949219 L 238.515625 277.953125 L 238.769531 277.960938 L 239.019531 277.96875 L 239.269531 277.972656 L 239.519531 277.980469 L 239.769531 277.984375 L 240.019531 277.992188 L 240.273438 277.996094 L 240.523438 278 L 240.773438 278.007812 L 241.523438 278.019531 L 241.777344 278.023438 L 242.027344 278.027344 L 242.277344 278.035156 L 242.527344 278.035156 L 242.777344 278.039062 L 243.03125 278.042969 L 244.28125 278.0625 L 244.535156 278.0625 L 245.035156 278.070312 L 245.285156 278.070312 L 245.785156 278.078125 L 246.039062 278.078125 L 246.289062 278.082031 L 246.539062 278.082031 L 246.789062 278.085938 L 247.039062 278.085938 L 247.289062 278.089844 L 247.542969 278.089844 L 247.792969 278.09375 L 248.042969 278.09375 L 248.292969 278.097656 L 248.792969 278.097656 L 249.046875 278.101562 L 249.546875 278.101562 L 249.796875 278.105469 L 250.296875 278.105469 L 250.550781 278.109375 L 251.300781 278.109375 L 251.550781 278.113281 L 252.304688 278.113281 L 252.554688 278.117188 L 253.808594 278.117188 L 254.058594 278.121094 L 255.3125 278.121094 L 255.5625 278.125 L 257.820312 278.125 L 258.070312 278.128906 L 262.078125 278.128906 L 262.332031 278.132812 L 319.734375 278.132812 "/>
<g clip-path="url(#clip-0)">
<path fill-rule="nonzero" fill="rgb(100%, 100%, 100%)" fill-opacity="1" d="M 272.246094 59.039062 L 329.757812 59.039062 L 329.757812 105.117188 L 272.246094 105.117188 Z M 272.246094 59.039062 "/>
</g>
<g clip-path="url(#clip-1)">
<path fill="none" stroke-width="0.75" stroke-linecap="round" stroke-linejoin="round" stroke="rgb(0%, 0%, 0%)" stroke-opacity="1" stroke-miterlimit="10" d="M 272.246094 59.039062 L 329.757812 59.039062 L 329.757812 105.117188 L 272.246094 105.117188 Z M 272.246094 59.039062 "/>
</g>
<path fill-rule="nonzero" fill="rgb(53.333333%, 80%, 93.333333%)" fill-opacity="1" stroke-width="0.75" stroke-linecap="round" stroke-linejoin="round" stroke="rgb(0%, 0%, 0%)" stroke-opacity="1" stroke-miterlimit="10" d="M 280.886719 67.679688 L 287.796875 67.679688 L 287.796875 73.441406 L 280.886719 73.441406 Z M 280.886719 67.679688 "/>
<path fill-rule="nonzero" fill="rgb(80%, 40%, 46.666667%)" fill-opacity="1" stroke-width="0.75" stroke-linecap="round" stroke-linejoin="round" stroke="rgb(0%, 0%, 0%)" stroke-opacity="1" stroke-miterlimit="10" d="M 280.886719 79.199219 L 287.796875 79.199219 L 287.796875 84.960938 L 280.886719 84.960938 Z M 280.886719 79.199219 "/>
<path fill-rule="nonzero" fill="rgb(86.666667%, 80%, 46.666667%)" fill-opacity="1" stroke-width="0.75" stroke-linecap="round" stroke-linejoin="round" stroke="rgb(0%, 0%, 0%)" stroke-opacity="1" stroke-miterlimit="10" d="M 280.886719 90.71875 L 287.796875 90.71875 L 287.796875 96.480469 L 280.886719 96.480469 Z M 280.886719 90.71875 "/>
<g fill="rgb(0%, 0%, 0%)" fill-opacity="1">
<use xlink:href="#glyph-2-0" x="296.441406" y="74.055664"/>
<use xlink:href="#glyph-2-1" x="303.441406" y="74.055664"/>
<use xlink:href="#glyph-2-2" x="306.441406" y="74.055664"/>
<use xlink:href="#glyph-2-3" x="311.441406" y="74.055664"/>
<use xlink:href="#glyph-2-4" x="314.441406" y="74.055664"/>
<use xlink:href="#glyph-2-5" x="319.441406" y="74.055664"/>
</g>
<g fill="rgb(0%, 0%, 0%)" fill-opacity="1">
<use xlink:href="#glyph-2-0" x="296.441406" y="85.575195"/>
<use xlink:href="#glyph-2-1" x="303.441406" y="85.575195"/>
<use xlink:href="#glyph-2-6" x="306.441406" y="85.575195"/>
<use xlink:href="#glyph-2-3" x="311.441406" y="85.575195"/>
<use xlink:href="#glyph-2-4" x="314.441406" y="85.575195"/>
<use xlink:href="#glyph-2-5" x="319.441406" y="85.575195"/>
</g>
<g fill="rgb(0%, 0%, 0%)" fill-opacity="1">
<use xlink:href="#glyph-2-0" x="296.441406" y="97.098633"/>
<use xlink:href="#glyph-2-1" x="303.441406" y="97.098633"/>
<use xlink:href="#glyph-2-7" x="306.441406" y="97.098633"/>
<use xlink:href="#glyph-2-6" x="309.441406" y="97.098633"/>
<use xlink:href="#glyph-2-3" x="314.441406" y="97.098633"/>
<use xlink:href="#glyph-2-4" x="317.441406" y="97.098633"/>
<use xlink:href="#glyph-2-5" x="322.441406" y="97.098633"/>
</g>
</svg>
